<svg width="37" height="36" viewBox="0 0 37 36" fill="none" xmlns="http://www.w3.org/2000/svg">
<g clip-path="url(#clip0_46_239)">
<path d="M34.5181 9.40517C32.8638 6.64731 30.6198 4.46391 27.7856 2.85448C24.951 1.24496 21.8564 0.440407 18.4997 0.440407C15.1434 0.440407 12.0478 1.24521 9.21379 2.85448C6.37932 4.46383 4.13544 6.64731 2.48113 9.40517C0.827071 12.1629 0 15.1745 0 18.4396C0 22.3618 1.17611 25.8888 3.52891 29.0214C5.88146 32.1542 8.9206 34.322 12.6461 35.525C13.0797 35.6033 13.4008 35.5483 13.6095 35.3612C13.8183 35.1739 13.9226 34.9392 13.9226 34.6583C13.9226 34.6115 13.9185 34.1898 13.9104 33.3928C13.9022 32.5958 13.8983 31.9005 13.8983 31.3072L13.3442 31.4005C12.991 31.4634 12.5454 31.4901 12.0073 31.4826C11.4696 31.4753 10.9113 31.4204 10.3333 31.3185C9.75501 31.2174 9.21716 30.9831 8.7193 30.6159C8.22169 30.2487 7.86843 29.7681 7.65962 29.1747L7.41875 28.6354C7.25819 28.2763 7.00542 27.8775 6.6601 27.4403C6.31478 27.0026 5.96557 26.706 5.61232 26.5498L5.44367 26.4323C5.33129 26.3542 5.22701 26.2601 5.13057 26.1508C5.03422 26.0415 4.96209 25.9322 4.91391 25.8227C4.86565 25.7131 4.90564 25.6232 5.03431 25.5527C5.16297 25.4822 5.39549 25.448 5.73288 25.448L6.21446 25.518C6.53566 25.5806 6.93295 25.7677 7.40685 26.0804C7.8805 26.3928 8.26986 26.799 8.57503 27.2987C8.94456 27.9395 9.38978 28.4278 9.91194 28.7638C10.4337 29.0998 10.9597 29.2675 11.4896 29.2675C12.0194 29.2675 12.477 29.2284 12.8626 29.1507C13.2477 29.0725 13.6091 28.955 13.9465 28.7989C14.091 27.7516 14.4845 26.9471 15.1266 26.3847C14.2114 26.2911 13.3885 26.1502 12.6576 25.9627C11.9272 25.7751 11.1723 25.4705 10.3936 25.0483C9.61445 24.6266 8.9681 24.1029 8.45438 23.4782C7.94057 22.8532 7.51889 22.0327 7.18994 21.0173C6.86081 20.0015 6.69621 18.8298 6.69621 17.5018C6.69621 15.6108 7.33067 14.0017 8.59932 12.6735C8.00503 11.2519 8.06113 9.65825 8.76781 7.89268C9.23353 7.7519 9.92417 7.85755 10.8394 8.20897C11.7548 8.56056 12.425 8.86174 12.8508 9.11146C13.2765 9.36109 13.6176 9.57263 13.8746 9.7442C15.3683 9.3381 16.9099 9.13502 18.4995 9.13502C20.0892 9.13502 21.6311 9.3381 23.1249 9.7442L24.0402 9.18197C24.6662 8.80682 25.4053 8.46304 26.2559 8.15052C27.107 7.83818 27.7579 7.75215 28.2077 7.89293C28.9301 9.65858 28.9945 11.2522 28.4 12.6738C29.6686 14.002 30.3033 15.6115 30.3033 17.502C30.3033 18.83 30.1381 20.0055 29.8095 21.029C29.4804 22.0528 29.0551 22.8725 28.5334 23.49C28.0111 24.1074 27.3606 24.6269 26.5818 25.0485C25.803 25.4705 25.0478 25.775 24.3174 25.9627C23.5866 26.1503 22.7637 26.2913 21.8485 26.3851C22.6832 27.0879 23.1007 28.1974 23.1007 29.7129V34.6577C23.1007 34.9386 23.2011 35.1731 23.4021 35.3605C23.6028 35.5476 23.9197 35.6027 24.3534 35.5243C28.0794 34.3214 31.1185 32.1536 33.471 29.0207C35.8232 25.8881 36.9997 22.3612 36.9997 18.439C36.9989 15.1742 36.1714 12.1629 34.5181 9.40517Z" fill="white"/>
</g>
<defs>
<clipPath id="clip0_46_239">
<rect width="37" height="36" fill="white"/>
</clipPath>
</defs>
</svg>
