<svg width="36" height="36" viewBox="0 0 36 36" fill="none" xmlns="http://www.w3.org/2000/svg">
<mask id="mask0_46_265" style="mask-type:alpha" maskUnits="userSpaceOnUse" x="0" y="0" width="36" height="36">
<rect width="36" height="36" fill="#D9D9D9"/>
</mask>
<g mask="url(#mask0_46_265)">
<path d="M18.0015 33C15.9515 33 14.014 32.6063 12.189 31.8188C10.364 31.0313 8.77022 29.9563 7.40772 28.5938C6.04522 27.2313 4.97022 25.6375 4.18272 23.8125C3.39521 21.9875 3.00146 20.05 3.00146 18C3.00146 15.925 3.39521 13.9813 4.18272 12.1688C4.97022 10.3563 6.04522 8.76876 7.40772 7.40626C8.77022 6.04376 10.364 4.96876 12.189 4.18126C14.014 3.39376 15.9515 3.00001 18.0015 3.00001C20.0765 3.00001 22.0202 3.39376 23.8327 4.18126C25.6452 4.96876 27.2327 6.04376 28.5952 7.40626C29.9577 8.76876 31.0327 10.3563 31.8202 12.1688C32.6077 13.9813 33.0015 15.925 33.0015 18C33.0015 20.05 32.6077 21.9875 31.8202 23.8125C31.0327 25.6375 29.9577 27.2313 28.5952 28.5938C27.2327 29.9563 25.6452 31.0313 23.8327 31.8188C22.0202 32.6063 20.0765 33 18.0015 33ZM18.0015 29.925C18.6515 29.025 19.214 28.0875 19.689 27.1125C20.164 26.1375 20.5515 25.1 20.8515 24H15.1515C15.4515 25.1 15.839 26.1375 16.314 27.1125C16.789 28.0875 17.3515 29.025 18.0015 29.925ZM14.1015 29.325C13.6515 28.5 13.2577 27.6438 12.9202 26.7563C12.5827 25.8688 12.3015 24.95 12.0765 24H7.65147C8.37647 25.25 9.28272 26.3375 10.3702 27.2625C11.4577 28.1875 12.7015 28.875 14.1015 29.325ZM21.9015 29.325C23.3015 28.875 24.5452 28.1875 25.6327 27.2625C26.7202 26.3375 27.6265 25.25 28.3515 24H23.9265C23.7015 24.95 23.4202 25.8688 23.0827 26.7563C22.7452 27.6438 22.3515 28.5 21.9015 29.325ZM6.37647 21H11.4765C11.4015 20.5 11.3452 20.0063 11.3077 19.5188C11.2702 19.0313 11.2515 18.525 11.2515 18C11.2515 17.475 11.2702 16.9688 11.3077 16.4813C11.3452 15.9938 11.4015 15.5 11.4765 15H6.37647C6.25147 15.5 6.15772 15.9938 6.09522 16.4813C6.03272 16.9688 6.00147 17.475 6.00147 18C6.00147 18.525 6.03272 19.0313 6.09522 19.5188C6.15772 20.0063 6.25147 20.5 6.37647 21ZM14.4765 21H21.5265C21.6015 20.5 21.6577 20.0063 21.6952 19.5188C21.7327 19.0313 21.7515 18.525 21.7515 18C21.7515 17.475 21.7327 16.9688 21.6952 16.4813C21.6577 15.9938 21.6015 15.5 21.5265 15H14.4765C14.4015 15.5 14.3452 15.9938 14.3077 16.4813C14.2702 16.9688 14.2515 17.475 14.2515 18C14.2515 18.525 14.2702 19.0313 14.3077 19.5188C14.3452 20.0063 14.4015 20.5 14.4765 21ZM24.5265 21H29.6265C29.7515 20.5 29.8452 20.0063 29.9077 19.5188C29.9702 19.0313 30.0015 18.525 30.0015 18C30.0015 17.475 29.9702 16.9688 29.9077 16.4813C29.8452 15.9938 29.7515 15.5 29.6265 15H24.5265C24.6015 15.5 24.6577 15.9938 24.6952 16.4813C24.7327 16.9688 24.7515 17.475 24.7515 18C24.7515 18.525 24.7327 19.0313 24.6952 19.5188C24.6577 20.0063 24.6015 20.5 24.5265 21ZM23.9265 12H28.3515C27.6265 10.75 26.7202 9.66251 25.6327 8.73751C24.5452 7.81251 23.3015 7.12501 21.9015 6.67501C22.3515 7.50001 22.7452 8.35626 23.0827 9.24376C23.4202 10.1313 23.7015 11.05 23.9265 12ZM15.1515 12H20.8515C20.5515 10.9 20.164 9.86251 19.689 8.88751C19.214 7.91251 18.6515 6.97501 18.0015 6.07501C17.3515 6.97501 16.789 7.91251 16.314 8.88751C15.839 9.86251 15.4515 10.9 15.1515 12ZM7.65147 12H12.0765C12.3015 11.05 12.5827 10.1313 12.9202 9.24376C13.2577 8.35626 13.6515 7.50001 14.1015 6.67501C12.7015 7.12501 11.4577 7.81251 10.3702 8.73751C9.28272 9.66251 8.37647 10.75 7.65147 12Z" fill="#0B0826"/>
</g>
</svg>
