<svg width="224" height="82" viewBox="0 0 224 82" fill="none" xmlns="http://www.w3.org/2000/svg">
<path d="M16.244 30.264L2.356 23.723V19.848L16.244 13.307V16.872L7.254 21.026C6.84067 21.212 6.42733 21.3773 6.014 21.522C5.62133 21.646 5.31133 21.7287 5.084 21.77C5.31133 21.8113 5.63167 21.894 6.045 22.018C6.45833 22.142 6.86133 22.297 7.254 22.483L16.244 26.637V30.264ZM28.0119 32.31C26.5446 32.31 25.2736 32.0413 24.1989 31.504C23.1242 30.946 22.2872 30.171 21.6879 29.179C21.1092 28.1663 20.8199 26.978 20.8199 25.614V15.756C20.8199 14.392 21.1092 13.214 21.6879 12.222C22.2872 11.2093 23.1242 10.4343 24.1989 9.897C25.2736 9.339 26.5446 9.06 28.0119 9.06C29.4586 9.06 30.7192 9.339 31.7939 9.897C32.8686 10.4343 33.7056 11.2093 34.3049 12.222C34.9042 13.214 35.2039 14.392 35.2039 15.756H31.2979C31.2979 14.702 31.0086 13.896 30.4299 13.338C29.8719 12.7593 29.0659 12.47 28.0119 12.47C26.9579 12.47 26.1416 12.749 25.5629 13.307C24.9842 13.865 24.6949 14.671 24.6949 15.725V25.614C24.6949 26.668 24.9842 27.4843 25.5629 28.063C26.1416 28.6417 26.9579 28.931 28.0119 28.931C29.0659 28.931 29.8719 28.6417 30.4299 28.063C31.0086 27.4843 31.2979 26.668 31.2979 25.614V23.103H27.4539V19.755H35.2039V25.614C35.2039 26.978 34.9042 28.1663 34.3049 29.179C33.7056 30.171 32.8686 30.946 31.7939 31.504C30.7192 32.0413 29.4586 32.31 28.0119 32.31ZM46.4758 32.279C44.2851 32.279 42.5491 31.6693 41.2678 30.45C39.9864 29.21 39.3458 27.5463 39.3458 25.459V21.491C39.3458 19.383 39.9864 17.7193 41.2678 16.5C42.5491 15.2807 44.2851 14.671 46.4758 14.671C48.6664 14.671 50.4024 15.2807 51.6838 16.5C52.9651 17.7193 53.6058 19.383 53.6058 21.491V25.459C53.6058 27.5463 52.9651 29.21 51.6838 30.45C50.4024 31.6693 48.6664 32.279 46.4758 32.279ZM46.4758 28.9C47.5091 28.9 48.3048 28.621 48.8628 28.063C49.4414 27.4843 49.7308 26.6577 49.7308 25.583V21.367C49.7308 20.2923 49.4414 19.476 48.8628 18.918C48.3048 18.3393 47.5091 18.05 46.4758 18.05C45.4424 18.05 44.6364 18.3393 44.0578 18.918C43.4998 19.476 43.2208 20.2923 43.2208 21.367V25.583C43.2208 26.6577 43.4998 27.4843 44.0578 28.063C44.6364 28.621 45.4424 28.9 46.4758 28.9ZM64.3507 32.279C62.3253 32.279 60.7237 31.8243 59.5457 30.915C58.3677 29.985 57.7787 28.7347 57.7787 27.164H61.5917C61.5917 27.8253 61.8293 28.3317 62.3047 28.683C62.8007 29.0343 63.4827 29.21 64.3507 29.21H65.7147C66.6447 29.21 67.3577 29.0343 67.8537 28.683C68.3703 28.3317 68.6287 27.8253 68.6287 27.164C68.6287 26.544 68.453 26.0893 68.1017 25.8C67.7503 25.49 67.213 25.2833 66.4897 25.18L62.2427 24.622C60.8787 24.436 59.8247 23.909 59.0807 23.041C58.3573 22.173 57.9957 21.0467 57.9957 19.662C57.9957 18.05 58.533 16.8203 59.6077 15.973C60.6823 15.105 62.2323 14.671 64.2577 14.671H65.6837C67.585 14.671 69.1143 15.105 70.2717 15.973C71.429 16.841 72.0283 17.9983 72.0697 19.445H68.2257C68.205 18.9077 67.9673 18.484 67.5127 18.174C67.058 17.8433 66.4483 17.678 65.6837 17.678H64.2577C63.431 17.678 62.8007 17.8537 62.3667 18.205C61.9327 18.5357 61.7157 18.9903 61.7157 19.569C61.7157 20.0857 61.8707 20.468 62.1807 20.716C62.5113 20.964 62.9867 21.119 63.6067 21.181L67.6057 21.739C69.1763 21.925 70.3543 22.483 71.1397 23.413C71.9457 24.3223 72.3487 25.552 72.3487 27.102C72.3487 28.7553 71.7803 30.0367 70.6437 30.946C69.5277 31.8347 67.8847 32.279 65.7147 32.279H64.3507ZM83.6516 32.31C81.4816 32.31 79.7766 31.7107 78.5366 30.512C77.2966 29.2927 76.6766 27.6393 76.6766 25.552V14.95H80.5516V25.521C80.5516 26.5957 80.8202 27.4327 81.3576 28.032C81.8949 28.6313 82.6596 28.931 83.6516 28.931C84.6229 28.931 85.3772 28.6313 85.9146 28.032C86.4726 27.4327 86.7516 26.5957 86.7516 25.521V14.95H90.6266V25.552C90.6266 27.6393 89.9962 29.2927 88.7356 30.512C87.4749 31.7107 85.7802 32.31 83.6516 32.31ZM100.689 32.31C99.0361 32.31 97.6928 31.721 96.6595 30.543C95.6468 29.365 95.1405 27.784 95.1405 25.8V21.181C95.1405 19.1763 95.6468 17.585 96.6595 16.407C97.6721 15.229 99.0155 14.64 100.689 14.64C101.867 14.64 102.859 14.9397 103.665 15.539C104.492 16.1383 105.071 16.9753 105.401 18.05L105.277 14.144V9.37H109.152V32H105.37V28.9C105.06 29.9747 104.502 30.8117 103.696 31.411C102.89 32.0103 101.888 32.31 100.689 32.31ZM102.146 28.962C103.138 28.962 103.903 28.6623 104.44 28.063C104.998 27.4637 105.277 26.6163 105.277 25.521V21.429C105.277 20.3337 104.998 19.4863 104.44 18.887C103.903 18.2877 103.138 17.988 102.146 17.988C101.154 17.988 100.379 18.2567 99.8215 18.794C99.2841 19.3313 99.0155 20.158 99.0155 21.274V25.676C99.0155 26.792 99.2841 27.6187 99.8215 28.156C100.379 28.6933 101.154 28.962 102.146 28.962ZM118.936 32.31C117.2 32.31 115.826 31.8243 114.813 30.853C113.821 29.861 113.325 28.5693 113.325 26.978C113.325 25.3247 113.894 24.0123 115.03 23.041C116.167 22.049 117.727 21.553 119.711 21.553H123.865V20.344C123.865 18.6287 122.863 17.771 120.858 17.771C119.949 17.771 119.226 17.9467 118.688 18.298C118.151 18.6493 117.851 19.1453 117.789 19.786H114.069C114.152 18.2567 114.793 17.0167 115.991 16.066C117.211 15.1153 118.843 14.64 120.889 14.64C123.059 14.64 124.744 15.1463 125.942 16.159C127.141 17.1717 127.74 18.5977 127.74 20.437V32H123.958V28.807C123.814 29.9023 123.297 30.76 122.408 31.38C121.52 32 120.362 32.31 118.936 32.31ZM120.176 29.148C121.313 29.148 122.212 28.869 122.873 28.311C123.535 27.753 123.865 27.009 123.865 26.079V24.064H119.897C119.05 24.064 118.378 24.3017 117.882 24.777C117.386 25.2523 117.138 25.862 117.138 26.606C117.138 27.3707 117.397 27.9907 117.913 28.466C118.451 28.9207 119.205 29.148 120.176 29.148ZM133.122 32V14.95H136.904V18.267C137.111 17.151 137.617 16.2727 138.423 15.632C139.25 14.9707 140.314 14.64 141.616 14.64C143.352 14.64 144.706 15.198 145.677 16.314C146.649 17.43 147.134 18.9903 147.134 20.995V22.607H143.259V21.181C143.259 20.1477 142.991 19.3623 142.453 18.825C141.916 18.267 141.151 17.988 140.159 17.988C139.126 17.988 138.341 18.298 137.803 18.918C137.266 19.538 136.997 20.4163 136.997 21.553V32H133.122ZM158.034 32.31C156.587 32.31 155.327 32.031 154.252 31.473C153.177 30.915 152.34 30.1297 151.741 29.117C151.162 28.0837 150.873 26.8747 150.873 25.49V21.46C150.873 20.0753 151.162 18.8767 151.741 17.864C152.34 16.8307 153.177 16.035 154.252 15.477C155.327 14.919 156.587 14.64 158.034 14.64C159.46 14.64 160.7 14.919 161.754 15.477C162.829 16.035 163.655 16.8203 164.234 17.833C164.833 18.825 165.133 19.9927 165.133 21.336V24.436H154.593V25.614C154.593 26.7713 154.893 27.6497 155.492 28.249C156.091 28.8277 156.939 29.117 158.034 29.117C158.84 29.117 159.522 28.9827 160.08 28.714C160.659 28.4247 161 28.0113 161.103 27.474H164.947C164.678 28.9413 163.914 30.1193 162.653 31.008C161.392 31.876 159.853 32.31 158.034 32.31ZM154.593 21.336V21.925L161.413 21.894V21.305C161.413 20.127 161.124 19.2177 160.545 18.577C159.966 17.9363 159.129 17.616 158.034 17.616C156.897 17.616 156.04 17.9467 155.461 18.608C154.882 19.2487 154.593 20.158 154.593 21.336ZM174.142 32L168.407 14.95H172.468L175.754 25.304C175.961 25.924 176.136 26.5543 176.281 27.195C176.446 27.815 176.56 28.3523 176.622 28.807C176.705 28.3523 176.808 27.815 176.932 27.195C177.077 26.5543 177.242 25.9343 177.428 25.335L180.683 14.95H184.775L179.071 32H174.142ZM187.739 35.41L198.589 6.27H202.619L191.769 35.41H187.739ZM206.823 30.264V26.699L215.813 22.545C216.226 22.359 216.629 22.204 217.022 22.08C217.435 21.956 217.755 21.863 217.983 21.801C217.755 21.7597 217.435 21.677 217.022 21.553C216.608 21.429 216.205 21.2843 215.813 21.119L206.823 16.934V13.307L220.711 19.848V23.723L206.823 30.264Z" fill="white"/>
<path d="M1.86 76.41L12.71 47.27H16.74L5.89 76.41H1.86ZM20.4479 76.41L31.2979 47.27H35.3279L24.4779 76.41H20.4479ZM39.5008 73V50.37H46.2278C47.7571 50.37 49.0798 50.6697 50.1958 51.269C51.3324 51.8477 52.2108 52.664 52.8308 53.718C53.4508 54.772 53.7608 56.012 53.7608 57.438V65.901C53.7608 67.327 53.4508 68.5773 52.8308 69.652C52.2108 70.706 51.3324 71.5327 50.1958 72.132C49.0798 72.7107 47.7571 73 46.2278 73H39.5008ZM43.3758 69.528H46.2278C47.3438 69.528 48.2324 69.2077 48.8938 68.567C49.5551 67.9057 49.8858 67.017 49.8858 65.901V57.438C49.8858 56.3427 49.5551 55.4747 48.8938 54.834C48.2324 54.1727 47.3438 53.842 46.2278 53.842H43.3758V69.528ZM63.1727 73.31C61.4367 73.31 60.0623 72.8243 59.0497 71.853C58.0577 70.861 57.5617 69.5693 57.5617 67.978C57.5617 66.3247 58.13 65.0123 59.2667 64.041C60.4033 63.049 61.9637 62.553 63.9477 62.553H68.1017V61.344C68.1017 59.6287 67.0993 58.771 65.0947 58.771C64.1853 58.771 63.462 58.9467 62.9247 59.298C62.3873 59.6493 62.0877 60.1453 62.0257 60.786H58.3057C58.3883 59.2567 59.029 58.0167 60.2277 57.066C61.447 56.1153 63.0797 55.64 65.1257 55.64C67.2957 55.64 68.98 56.1463 70.1787 57.159C71.3773 58.1717 71.9767 59.5977 71.9767 61.437V73H68.1947V69.807C68.05 70.9023 67.5333 71.76 66.6447 72.38C65.756 73 64.5987 73.31 63.1727 73.31ZM64.4127 70.148C65.5493 70.148 66.4483 69.869 67.1097 69.311C67.771 68.753 68.1017 68.009 68.1017 67.079V65.064H64.1337C63.2863 65.064 62.6147 65.3017 62.1187 65.777C61.6227 66.2523 61.3747 66.862 61.3747 67.606C61.3747 68.3707 61.633 68.9907 62.1497 69.466C62.687 69.9207 63.4413 70.148 64.4127 70.148ZM76.7386 73V55.95H80.5206V59.143C80.7272 58.0683 81.2336 57.221 82.0396 56.601C82.8456 55.9603 83.8686 55.64 85.1086 55.64C86.7826 55.64 88.1156 56.198 89.1076 57.314C90.1202 58.43 90.6266 59.9283 90.6266 61.809V73H86.7516V62.274C86.7516 61.22 86.4726 60.414 85.9146 59.856C85.3772 59.2773 84.6436 58.988 83.7136 58.988C82.7422 58.988 81.9776 59.2773 81.4196 59.856C80.8822 60.4347 80.6136 61.2613 80.6136 62.336V73H76.7386ZM95.2955 73V69.497H101.123V59.453H95.9155V55.95H104.998V69.497H110.237V73H95.2955ZM102.797 53.098C102.012 53.098 101.392 52.9017 100.937 52.509C100.483 52.0957 100.255 51.548 100.255 50.866C100.255 50.184 100.483 49.6467 100.937 49.254C101.392 48.8407 102.012 48.634 102.797 48.634C103.583 48.634 104.203 48.8407 104.657 49.254C105.112 49.6467 105.339 50.184 105.339 50.866C105.339 51.548 105.112 52.0957 104.657 52.509C104.203 52.9017 103.583 53.098 102.797 53.098ZM123.586 73C121.892 73 120.528 72.4937 119.494 71.481C118.482 70.4683 117.975 69.1353 117.975 67.482V53.873H112.364V50.37H121.85V67.389C121.85 68.0297 122.026 68.5463 122.377 68.939C122.749 69.311 123.245 69.497 123.865 69.497H128.856V73H123.586ZM137.524 73.31C135.788 73.31 134.414 72.8243 133.401 71.853C132.409 70.861 131.913 69.5693 131.913 67.978C131.913 66.3247 132.482 65.0123 133.618 64.041C134.755 63.049 136.315 62.553 138.299 62.553H142.453V61.344C142.453 59.6287 141.451 58.771 139.446 58.771C138.537 58.771 137.814 58.9467 137.276 59.298C136.739 59.6493 136.439 60.1453 136.377 60.786H132.657C132.74 59.2567 133.381 58.0167 134.579 57.066C135.799 56.1153 137.431 55.64 139.477 55.64C141.647 55.64 143.332 56.1463 144.53 57.159C145.729 58.1717 146.328 59.5977 146.328 61.437V73H142.546V69.807C142.402 70.9023 141.885 71.76 140.996 72.38C140.108 73 138.95 73.31 137.524 73.31ZM138.764 70.148C139.901 70.148 140.8 69.869 141.461 69.311C142.123 68.753 142.453 68.009 142.453 67.079V65.064H138.485C137.638 65.064 136.966 65.3017 136.47 65.777C135.974 66.2523 135.726 66.862 135.726 67.606C135.726 68.3707 135.985 68.9907 136.501 69.466C137.039 69.9207 137.793 70.148 138.764 70.148Z" fill="#D200A3"/>
</svg>
