<svg width="32" height="32" viewBox="0 0 32 32" fill="none" xmlns="http://www.w3.org/2000/svg">
<path fill-rule="evenodd" clip-rule="evenodd" d="M27.9999 22.56V26.56C28.003 27.3109 27.6893 28.0282 27.136 28.5358C26.5827 29.0434 25.8411 29.2943 25.0933 29.2267C20.9904 28.7809 17.0493 27.3789 13.5866 25.1333C10.365 23.0862 7.6337 20.3549 5.58659 17.1333C3.33322 13.6549 1.93091 9.69466 1.49325 5.57333C1.42588 4.82783 1.67495 4.08834 2.17961 3.53549C2.68427 2.98265 3.39805 2.66737 4.14659 2.66667H8.14659C9.48507 2.65349 10.6259 3.63462 10.8133 4.96C10.9821 6.24009 11.2952 7.49697 11.7466 8.70667C12.1129 9.68117 11.8786 10.7797 11.1466 11.52L9.45325 13.2133C11.3513 16.5514 14.1152 19.3153 17.4533 21.2133L19.1466 19.52C19.8868 18.788 20.9854 18.5537 21.9599 18.92C23.1696 19.3714 24.4265 19.6845 25.7066 19.8533C27.0473 20.0425 28.0335 21.2064 27.9999 22.56Z" stroke="white" stroke-width="2" stroke-linecap="round" stroke-linejoin="round"/>
</svg>
