<svg width="91" height="91" viewBox="0 0 91 91" fill="none" xmlns="http://www.w3.org/2000/svg">
<path d="M16.7838 77.3528L10.3968 5.6875H80.6033L74.2077 77.3415L45.4574 85.3125L16.7838 77.3528Z" fill="#1572B6"/>
<path d="M45.5 79.2212L68.7334 72.7801L74.1991 11.5485H45.5V79.2212Z" fill="#33A9DC"/>
<path d="M45.5 37.5119H57.1309L57.9329 28.5114H45.5V19.7214H45.5313H67.5391L67.3286 22.0789L65.1702 46.3019H45.5V37.5119Z" fill="white"/>
<path d="M45.554 60.3387L45.5142 60.3501L35.726 57.7054L35.1004 50.6955H30.3428H26.2762L27.5076 64.4962L45.5114 69.4956L45.554 69.4842V60.3387Z" fill="#EBEBEB"/>
<path d="M56.383 45.9294L55.3251 57.6997L45.5227 60.3444V69.4899L63.5407 64.4963L63.6744 63.0118L65.2015 45.9294H56.383Z" fill="white"/>
<path d="M45.5313 19.7214V25.1814V28.4887V28.5114H24.3283H24.2998L24.1235 26.535L23.7226 22.0789L23.5121 19.7214H45.5313Z" fill="#EBEBEB"/>
<path d="M45.5 37.5119V42.9719V46.2792V46.3019H35.8625H35.8341L35.6578 44.3255L35.2597 39.8694L35.0492 37.5119H45.5Z" fill="#EBEBEB"/>
</svg>
