<svg width="90" height="90" viewBox="0 0 90 90" fill="none" xmlns="http://www.w3.org/2000/svg">
<path d="M84.375 5.625H5.625V84.375H84.375V5.625Z" fill="#F5DE19"/>
<path d="M58.5253 67.1484C59.1963 68.5114 60.2387 69.6569 61.5325 70.4531C62.8263 71.2493 64.3188 71.6637 65.8378 71.6484C68.9034 71.6484 70.8637 70.1156 70.8637 67.9922C70.8637 65.4609 68.85 64.5553 65.475 63.0788L63.6244 62.2856C58.2806 60.0103 54.7369 57.1613 54.7369 51.1369C54.7369 45.5878 58.9556 41.3606 65.5734 41.3606C67.7157 41.2059 69.8562 41.6854 71.7277 42.7392C73.5993 43.793 75.1192 45.3746 76.0978 47.2866L70.3125 50.985C69.9357 50.037 69.2796 49.2259 68.4312 48.6593C67.5828 48.0927 66.5823 47.7974 65.5622 47.8125C65.1171 47.7679 64.6677 47.8166 64.2425 47.9553C63.8173 48.0941 63.4256 48.3199 63.0925 48.6183C62.7594 48.9168 62.4921 49.2814 62.3076 49.6889C62.1232 50.0963 62.0257 50.5378 62.0213 50.985C62.0213 53.2041 63.3966 54.1041 66.5719 55.485L68.4225 56.2781C74.7112 58.9753 78.2662 61.7231 78.2662 67.9022C78.2662 74.565 73.0322 78.2156 66.0037 78.2156C63.2652 78.3901 60.5347 77.7684 58.1417 76.4254C55.7487 75.0824 53.7955 73.0756 52.5178 70.6472L58.5253 67.1484ZM32.3831 67.7897C33.5447 69.8513 34.6022 71.595 37.1447 71.595C39.5747 71.595 41.1103 70.6444 41.1103 66.9459V41.7825H48.51V67.0444C48.51 74.7056 44.01 78.1931 37.4597 78.1931C35.1443 78.3197 32.8448 77.7427 30.8635 76.5379C28.8822 75.3332 27.3118 73.5571 26.3587 71.4431L32.3831 67.7897Z" fill="black"/>
</svg>
