<svg width="116" height="116" viewBox="0 0 116 116" fill="none" xmlns="http://www.w3.org/2000/svg">
<path d="M58 68.3313C63.7058 68.3313 68.3312 63.7058 68.3312 58C68.3312 52.2942 63.7058 47.6688 58 47.6688C52.2942 47.6688 47.6687 52.2942 47.6687 58C47.6687 63.7058 52.2942 68.3313 58 68.3313Z" fill="#61DAFB"/>
<path d="M97.2406 40.9625C95.2469 40.2375 93.1625 39.5125 90.9875 38.8781C91.5312 36.7031 91.9844 34.5281 92.3469 32.4438C94.25 20.4813 92.1656 12.0531 86.3656 8.79064C84.6438 7.79376 82.7406 7.34064 80.5656 7.34064C74.2219 7.34064 66.1562 12.0531 58 19.9375C49.8438 12.0531 41.7781 7.34064 35.4344 7.34064C33.2594 7.34064 31.3563 7.79376 29.6344 8.79064C23.8344 12.1438 21.75 20.5719 23.6531 32.4438C24.0156 34.5281 24.4688 36.7031 25.0125 38.8781C22.8375 39.5125 20.7531 40.1469 18.7594 40.9625C7.43125 45.3125 1.26875 51.2938 1.26875 58C1.26875 64.7063 7.52188 70.6875 18.7594 75.0375C20.7531 75.7625 22.8375 76.4875 25.0125 77.1219C24.4688 79.2969 24.0156 81.4719 23.6531 83.5563C21.75 95.5188 23.8344 103.947 29.6344 107.209C31.3563 108.206 33.2594 108.659 35.4344 108.659C41.8688 108.659 49.9344 103.947 58 96.0625C66.1562 103.947 74.2219 108.659 80.5656 108.659C82.7406 108.659 84.6438 108.206 86.3656 107.209C92.1656 103.856 94.25 95.4281 92.3469 83.5563C91.9844 81.4719 91.5312 79.2969 90.9875 77.1219C93.1625 76.4875 95.2469 75.8531 97.2406 75.0375C108.569 70.6875 114.731 64.7063 114.731 58C114.731 51.2938 108.569 45.3125 97.2406 40.9625ZM83.8281 13.3219C87.5438 15.4969 88.8125 22.2031 87.2719 31.7188C87 33.6219 86.5469 35.6156 86.0031 37.7C81.2906 36.6125 76.3063 35.8875 71.05 35.4344C67.9688 31.0844 64.7969 27.1875 61.625 23.6531C68.3313 17.0375 75.1281 12.5063 80.6562 12.5063C81.8344 12.5063 82.9219 12.7781 83.8281 13.3219ZM73.6781 67.0625C72.0469 69.9625 70.1437 72.8625 68.15 75.7625C64.7969 76.0344 61.4438 76.125 58 76.125C54.4656 76.125 51.1125 76.0344 47.85 75.7625C45.8563 72.8625 44.0438 69.9625 42.4125 67.0625C40.6906 64.0719 39.0594 60.9906 37.6094 58C39.0594 55.0094 40.6906 51.9281 42.4125 48.9375C44.0438 46.0375 45.9469 43.1375 47.9406 40.2375C51.2938 39.9656 54.6469 39.875 58.0906 39.875C61.625 39.875 64.9781 39.9656 68.2406 40.2375C70.2344 43.1375 72.0469 46.0375 73.6781 48.9375C75.4 51.9281 77.0312 55.0094 78.4812 58C76.9406 60.9906 75.4 63.9813 73.6781 67.0625ZM81.2 64.0719C82.5594 67.2438 83.6469 70.325 84.6438 73.4063C81.5625 74.1313 78.3 74.675 74.8562 75.1281C75.9437 73.4063 77.1219 71.5938 78.1188 69.6906C79.2062 67.7875 80.2031 65.8844 81.2 64.0719ZM58 88.6313C55.825 86.275 53.7406 83.7375 51.7469 81.1094C53.8312 81.2 55.9156 81.2906 58 81.2906C60.0844 81.2906 62.1688 81.2 64.2531 81.1094C62.2594 83.7375 60.175 86.275 58 88.6313ZM41.1438 75.0375C37.7 74.5844 34.4375 74.0406 31.3563 73.3156C32.3531 70.325 33.4406 67.1531 34.8 63.9813C35.7969 65.7938 36.7938 67.6969 37.8813 69.5094C38.9688 71.5031 40.0563 73.225 41.1438 75.0375ZM34.8 51.9281C33.4406 48.7563 32.3531 45.675 31.3563 42.5938C34.4375 41.8688 37.7 41.325 41.1438 40.8719C40.0563 42.5938 38.8781 44.4063 37.8813 46.3094C36.7938 48.2125 35.7969 50.1156 34.8 51.9281ZM58 27.3688C60.175 29.725 62.2594 32.2625 64.2531 34.8906C62.1688 34.8 60.0844 34.7094 58 34.7094C55.9156 34.7094 53.8312 34.8 51.7469 34.8906C53.7406 32.2625 55.825 29.725 58 27.3688ZM78.1188 46.4L74.8562 40.9625C78.3 41.4156 81.5625 41.9594 84.6438 42.6844C83.6469 45.675 82.5594 48.8469 81.2 52.0188C80.2031 50.1156 79.2062 48.2125 78.1188 46.4ZM28.7281 31.7188C27.1875 22.2031 28.4563 15.4969 32.1719 13.3219C33.0781 12.7781 34.1656 12.5063 35.3438 12.5063C40.7812 12.5063 47.5781 16.9469 54.375 23.6531C51.2031 27.0969 48.0312 31.0844 44.95 35.4344C39.6937 35.8875 34.7094 36.7031 29.9969 37.7C29.4531 35.6156 29.0906 33.6219 28.7281 31.7188ZM6.34375 58C6.34375 53.7406 11.5094 49.2094 20.5719 45.8563C22.3844 45.1313 24.3781 44.4969 26.3719 43.9531C27.8219 48.4844 29.6344 53.2875 31.8094 58.0906C29.6344 62.8938 27.7313 67.6063 26.3719 72.1375C13.8656 68.5125 6.34375 63.075 6.34375 58ZM32.1719 102.678C28.4563 100.503 27.1875 93.7969 28.7281 84.2813C29 82.3781 29.4531 80.3844 29.9969 78.3C34.7094 79.3875 39.6937 80.1125 44.95 80.5656C48.0312 84.9156 51.2031 88.8125 54.375 92.3469C47.6688 98.9625 40.8719 103.494 35.3438 103.494C34.1656 103.494 33.0781 103.222 32.1719 102.678ZM87.2719 84.2813C88.8125 93.7969 87.5438 100.503 83.8281 102.678C82.9219 103.222 81.8344 103.494 80.6562 103.494C75.2188 103.494 68.4219 99.0531 61.625 92.3469C64.7969 88.9031 67.9688 84.9156 71.05 80.5656C76.3063 80.1125 81.2906 79.2969 86.0031 78.3C86.5469 80.3844 86.9094 82.3781 87.2719 84.2813ZM95.4281 70.1438C93.6156 70.8688 91.6219 71.5031 89.6281 72.0469C88.1781 67.5156 86.3656 62.7125 84.1906 57.9094C86.3656 53.1063 88.2688 48.3938 89.6281 43.8625C102.134 47.4875 109.656 52.925 109.656 58C109.656 62.2594 104.4 66.7906 95.4281 70.1438Z" fill="#61DAFB"/>
</svg>
