<svg width="129" height="129" viewBox="0 0 129 129" fill="none" xmlns="http://www.w3.org/2000/svg">
<path d="M23.7924 109.654L14.7342 8.0625H114.266L105.195 109.638L64.4395 120.938L23.7924 109.654Z" fill="#E44F26"/>
<path d="M64.5 112.303L97.4353 103.172L105.183 16.3709H64.5V112.303Z" fill="#F1662A"/>
<path d="M64.5 54.047H48.0122L46.8754 41.2881H64.5V28.8275H64.4557H33.2578L33.5561 32.1734L36.6158 66.5076H64.5V54.047Z" fill="#EBEBEB"/>
<path d="M64.5 86.4058L64.4436 86.4219L50.568 82.6769L49.6811 72.7399H42.9368H37.1721L38.9177 92.2995L64.4436 99.3864L64.5 99.3703V86.4058Z" fill="#EBEBEB"/>
<path d="M64.4557 54.047V66.5076H79.7986L78.3554 82.6688L64.4557 86.4179V99.3824L90.0017 92.2995L90.1871 90.1952L93.1138 57.3929L93.4202 54.047H90.0622H64.4557Z" fill="white"/>
<path d="M64.4557 28.8275V36.5675V41.2598V41.2881H94.5127H94.553L94.8029 38.4904L95.3713 32.1734L95.6696 28.8275H64.4557Z" fill="white"/>
</svg>
