<svg width="95" height="95" viewBox="0 0 95 95" fill="none" xmlns="http://www.w3.org/2000/svg">
<g clip-path="url(#clip0_13_116)">
<path d="M65.8246 65.3941C59.1449 79.0504 47.4481 88.2387 31.9734 91.2594C29.6008 91.8407 27.165 92.1249 24.7223 92.1055C15.816 92.1055 7.65196 88.3945 3.68868 82.316C-1.63281 74.2188 -3.44374 57.0519 14.1016 44.3531C14.4578 46.2902 15.1852 48.9473 15.6676 50.5207C12.2233 53.0795 9.40409 56.386 7.42188 60.1914C4.15625 66.6039 4.51993 73.009 8.38672 78.9316C11.0586 82.9246 15.2891 85.3516 20.7293 86.0938C27.5243 86.9538 34.4177 85.6556 40.4344 82.3828C49.8676 77.425 56.1539 71.5023 60.2656 63.4051C59.103 62.2036 58.4148 60.6217 58.3285 58.952C58.2664 57.1602 58.9176 55.417 60.1393 54.1049C61.361 52.7927 63.0533 52.0189 64.8449 51.9531H65.0973C66.8399 51.9444 68.5192 52.6059 69.7877 53.8008C71.0562 54.9957 71.8168 56.6325 71.9121 58.3725C72.0075 60.1125 71.4303 61.8226 70.2999 63.149C69.1696 64.4753 67.5726 65.3163 65.8395 65.498L65.8246 65.3941ZM87.1031 50.402C96.1652 60.6738 96.4102 72.7641 92.907 79.7777C89.6414 86.1828 81.032 92.5953 69.4539 92.5953C64.049 92.4851 58.732 91.2064 53.868 88.8473C55.5676 87.6375 57.9797 85.7004 59.3082 84.4906C63.0591 86.1156 67.0957 86.9784 71.1832 87.0289C78.6793 87.0289 84.357 83.5258 87.7414 77.1207C89.916 72.8902 90.0422 67.9324 87.9863 62.8559C85.4637 56.4685 80.9748 51.049 75.1688 47.3812C67.5515 42.2464 58.5716 39.509 49.3852 39.5215H47.2106C46.7035 40.6928 45.8785 41.6988 44.8292 42.4255C43.7798 43.1522 42.5479 43.5706 41.2731 43.6332H41.043C39.2797 43.6115 37.5942 42.9033 36.3447 41.6589C35.0952 40.4146 34.38 38.7321 34.351 36.9689C34.322 35.2057 34.9815 33.5006 36.1895 32.2159C37.3974 30.9311 39.0587 30.1679 40.8203 30.0883H41.0652C42.2929 30.0892 43.4965 30.4284 44.5439 31.0687C45.5914 31.7089 46.4421 32.6254 47.0027 33.7176H48.9398C64.3773 33.7176 77.9297 39.6402 87.1031 50.402ZM25.6871 67.4723C25.56 66.2398 25.8586 65.001 26.5332 63.9617C19.7645 52.2352 16.1426 37.3691 21.7016 21.8945C25.6871 10.2645 35.7215 2.40469 46.602 2.40469C58.2098 2.40469 70.3 12.5652 71.7473 32.1441C69.9363 31.543 67.2941 30.6598 65.7059 30.3332C65.3125 23.9281 59.902 7.97109 47.0844 8.20859C42.4902 8.33476 35.7215 10.5094 32.2406 14.9773C27.9349 20.3109 25.4301 26.8716 25.0859 33.7176C24.2701 43.1046 26.4724 52.5069 31.3723 60.5551C31.6428 60.4562 31.9311 60.4158 32.2184 60.4363H32.4559C34.251 60.4039 35.9856 61.0858 37.278 62.3323C38.5703 63.5787 39.3146 65.2874 39.3471 67.0826C39.3796 68.8778 38.6976 70.6124 37.4511 71.9047C36.2047 73.1971 34.496 73.9413 32.7008 73.9738H32.4559C30.7045 73.9676 29.0231 73.2858 27.7622 72.0704C26.5012 70.855 25.7578 69.1999 25.6871 67.45V67.4723Z" fill="#764ABC"/>
</g>
<defs>
<clipPath id="clip0_13_116">
<rect width="95" height="95" fill="white"/>
</clipPath>
</defs>
</svg>
