<svg width="78" height="78" viewBox="0 0 78 78" fill="none" xmlns="http://www.w3.org/2000/svg">
<path d="M4.875 39V73.125H39H73.125V39V4.875H39H4.875V39Z" fill="#007ACC"/>
<path d="M59.8748 36.2797C61.5091 36.66 62.9943 37.5158 64.1428 38.7392C64.7753 39.4011 65.3246 40.1378 65.7784 40.9329C65.8003 41.0207 62.8315 43.0121 61.0326 44.1285C60.9668 44.1724 60.7084 43.8847 60.4159 43.4557C60.088 42.8892 59.6217 42.4152 59.0607 42.078C58.4997 41.7407 57.8623 41.5514 57.2081 41.5277C55.1387 41.3863 53.7956 42.471 53.8176 44.2796C53.7999 44.7238 53.9009 45.1646 54.1101 45.5569C54.5659 46.5002 55.4093 47.0632 58.0637 48.2113C62.9387 50.3124 65.0398 51.6994 66.3512 53.6713C67.0812 54.9166 67.5301 56.3065 67.6665 57.7435C67.8029 59.1806 67.6236 60.6301 67.1409 61.9905C66.479 63.4843 65.4291 64.7736 64.1003 65.7244C62.7715 66.6752 61.2122 67.2526 59.5847 67.3969C57.8561 67.5952 56.1096 67.5772 54.3855 67.3432C51.744 66.9096 49.3105 65.642 47.4411 63.726C46.7353 62.9307 46.1378 62.0455 45.6641 61.0935C45.8637 60.9451 46.0739 60.8115 46.293 60.6937C46.5953 60.5207 47.7555 59.8601 48.828 59.2312L50.778 58.0929L51.1875 58.695C51.8816 59.6875 52.7656 60.5325 53.7883 61.1812C54.8176 61.7456 55.9835 62.013 57.1558 61.9536C58.3282 61.8942 59.4611 61.5104 60.4281 60.8449C60.9239 60.3588 61.2334 59.7143 61.3029 59.0235C61.3724 58.3326 61.1974 57.6394 60.8083 57.0643C60.277 56.3062 59.1947 55.6676 56.1186 54.3343C53.7062 53.5177 51.5096 52.1661 49.6933 50.3807C48.827 49.3936 48.1872 48.2288 47.8189 46.9682C47.5463 45.532 47.506 44.0613 47.6995 42.6124C48.0609 40.9452 48.9262 39.4295 50.178 38.2706C51.4297 37.1117 53.0075 36.3657 54.6975 36.1335C56.4208 35.922 58.1661 35.9713 59.8748 36.2797ZM43.8531 39.1292L43.875 41.925H34.9928V67.1677H28.7089V41.925H19.8242V39.1852C19.8 38.2453 19.8253 37.3048 19.8998 36.3675C19.9314 36.3236 25.3378 36.3017 31.8923 36.3139L43.8189 36.3456L43.8531 39.1292Z" fill="white"/>
</svg>
