<svg width="118" height="118" viewBox="0 0 118 118" fill="none" xmlns="http://www.w3.org/2000/svg">
<path d="M21.7636 100.304L13.4815 7.375H104.519L96.2253 100.289L58.9447 110.625L21.7636 100.304Z" fill="#1572B6"/>
<path d="M59 102.726L89.1269 94.3741L96.2142 14.9749H59V102.726Z" fill="#33A9DC"/>
<path d="M59 48.6418H74.0819L75.1217 36.9708H59V25.5728H59.0406H87.5781L87.3053 28.6297L84.5064 60.0398H59V48.6418Z" fill="white"/>
<path d="M59.0701 78.2414L59.0184 78.2561L46.3261 74.8267L45.5148 65.7371H39.3456H34.0725L35.6692 83.6325L59.0148 90.1151L59.0701 90.1004V78.2414Z" fill="#EBEBEB"/>
<path d="M73.1121 59.5569L71.7403 74.8195L59.0295 78.2488V90.1078L82.3935 83.6326L82.5668 81.7077L84.547 59.5569H73.1121Z" fill="white"/>
<path d="M59.0406 25.5728V32.6528V36.9413V36.9708H31.5466H31.5097L31.2811 34.408L30.7611 28.6297L30.4883 25.5728H59.0406Z" fill="#EBEBEB"/>
<path d="M59 48.6418V55.7218V60.0104V60.0399H46.5031H46.4662L46.2375 57.4771L45.7213 51.6988L45.4484 48.6418H59Z" fill="#EBEBEB"/>
</svg>
