<svg width="118" height="59" viewBox="0 0 118 59" fill="none" xmlns="http://www.w3.org/2000/svg">
<path d="M39.3334 41.0571V18.3962H40.5625V21.9608C40.7077 21.8027 40.8417 21.6349 40.9637 21.4583C41.9903 19.3284 44.1556 17.9842 46.5196 18.0108C49.3221 17.9272 51.5995 18.9646 52.9378 21.4583C53.7894 23.0075 54.2581 24.738 54.3046 26.5053C54.3511 28.2725 53.9742 30.0253 53.2053 31.6171C51.9584 34.4118 48.8786 35.8012 45.5815 35.2909C44.5554 35.2036 43.5675 34.8608 42.7079 34.2936C41.8484 33.7264 41.1446 32.953 40.6609 32.0439V41.0562L39.3334 41.0571ZM40.5625 26.4124L40.8379 29.0733C41.3236 32.1019 43.1143 33.8916 45.9256 34.2279C47.2459 34.445 48.6005 34.1974 49.7587 33.5275C50.9169 32.8576 51.8069 31.8068 52.277 30.5542C53.3705 27.9483 53.2898 24.9983 52.0607 22.4535C51.5589 21.3306 50.7053 20.4015 49.6288 19.8067C48.5523 19.2119 47.3115 18.9836 46.0938 19.1563C44.9508 19.2395 43.8621 19.6766 42.9789 20.4068C42.0956 21.1371 41.4618 22.1243 41.1653 23.2313C40.9036 24.2789 40.7023 25.3407 40.5625 26.4114V26.4124ZM79.4022 29.4922C79.2158 31.0877 78.4563 32.5612 77.2648 33.6387C76.0734 34.7162 74.5312 35.3243 72.925 35.3499C67.7704 35.6095 65.3514 32.1865 64.9669 28.2364C64.6995 26.0914 65.0477 23.9145 65.9709 21.9598C66.6134 20.6189 67.6661 19.5174 68.9765 18.8148C70.2869 18.1123 71.787 17.8451 73.2594 18.0521C74.6591 18.171 75.986 18.7272 77.0522 19.6419C78.1185 20.5565 78.8701 21.7833 79.2007 23.1487C79.4625 24.3924 79.6552 25.6498 79.7779 26.9148H66.2403C65.9896 30.4961 67.914 33.3753 70.6417 34.0696C74.0391 34.9054 76.9429 33.4334 77.9971 30.2031C78.2311 29.3742 78.6579 29.2571 79.4111 29.4922H79.4022ZM66.2305 25.7683H78.3393C78.2635 21.9529 75.8878 19.1799 72.6654 19.1485C69.0271 19.0895 66.3888 21.7514 66.2305 25.7683ZM81.9048 29.5757H83.0917C83.1353 30.4501 83.4193 31.2956 83.9123 32.019C84.4054 32.7425 85.0884 33.3159 85.8863 33.6762C86.8882 34.1271 87.9789 34.3462 89.0772 34.3173C90.1755 34.2884 91.2531 34.0121 92.2298 33.5091C92.7623 33.2693 93.2083 32.8719 93.5076 32.3706C93.8069 31.8692 93.9451 31.288 93.9035 30.7056C93.9341 30.1439 93.7807 29.5875 93.4667 29.1208C93.1526 28.6541 92.6949 28.3025 92.163 28.1194C90.8571 27.6337 89.4686 27.3662 88.1382 26.9394C86.7537 26.5453 85.4 26.0503 84.0878 25.4585C81.9442 24.4123 81.8114 20.3373 84.2383 19.0472C85.4809 18.346 86.8794 17.9671 88.306 17.9451C89.7327 17.9231 91.1422 18.2587 92.4058 18.9213C93.9733 19.7867 94.8396 21.534 94.582 23.307H93.5642C93.5642 23.2578 93.4718 23.2146 93.4718 23.1644C93.3459 19.9194 90.6181 18.9046 87.6898 19.1898C86.8048 19.2881 85.966 19.5556 85.1793 19.9509C84.7064 20.1668 84.3124 20.5244 84.0516 20.9742C83.7909 21.424 83.6764 21.9436 83.724 22.4613C83.725 22.9794 83.8864 23.4845 84.1861 23.907C84.4858 24.3296 84.909 24.649 85.3976 24.8213C86.676 25.2904 88.033 25.5913 89.3555 25.959L92.5514 26.7949C93.2778 27.0333 93.9146 27.4866 94.3778 28.0948C94.841 28.703 95.1087 29.4375 95.1454 30.2011C95.4011 31.9171 94.5259 33.6035 92.9781 34.3852C90.1835 35.9664 85.5805 35.5485 83.5303 33.5494C82.4811 32.4943 81.896 31.0616 81.9078 29.5748L81.9048 29.5757ZM110.205 23.308H109.092C109.092 23.1575 109.033 23.013 109.016 22.8979C108.999 22.0635 108.694 21.2606 108.155 20.6238C107.616 19.987 106.874 19.555 106.054 19.4002C104.507 18.9565 102.856 19.036 101.359 19.6264C100.767 19.7958 100.246 20.1523 99.8733 20.6426C99.5007 21.1328 99.2968 21.7305 99.2921 22.3463C99.2709 22.9509 99.4592 23.5443 99.8251 24.0261C100.191 24.5079 100.712 24.8485 101.3 24.9905L106.388 26.2963C106.938 26.4283 107.48 26.5931 108.01 26.79C109.633 27.38 110.734 28.8864 110.783 30.6082C110.808 31.451 110.577 32.2815 110.12 32.9905C109.664 33.6995 109.004 34.2539 108.227 34.5809C107.046 35.1173 105.766 35.4011 104.469 35.4142C103.172 35.4272 101.887 35.1692 100.695 34.6566C99.7155 34.2341 98.8887 33.5216 98.3261 32.615C97.7635 31.7083 97.4922 30.6511 97.5487 29.5856H98.6362C99.0453 31.5572 100.399 33.1993 102.257 33.9762C104.114 34.753 106.235 34.5622 107.925 33.4688C108.432 33.2052 108.852 32.8019 109.137 32.3066C109.422 31.8113 109.559 31.2448 109.532 30.6741C109.557 30.112 109.398 29.557 109.079 29.0933C108.761 28.6296 108.299 28.2825 107.766 28.1047C106.46 27.6189 105.071 27.3603 103.741 26.9247C102.349 26.5366 100.987 26.0472 99.6658 25.4605C97.5733 24.4309 97.4061 20.3894 99.7917 19.1003C101.05 18.3697 102.475 17.9771 103.93 17.9609C105.385 17.9447 106.819 18.3054 108.093 19.0079C108.822 19.4427 109.408 20.0801 109.781 20.8424C110.154 21.6046 110.297 22.4589 110.193 23.3011L110.205 23.308ZM37.3107 34.9408C36.8725 35.1065 36.3888 35.1061 35.951 34.9396C35.5131 34.7731 35.1513 34.4521 34.9339 34.0371L30.6073 28.0535L29.9799 27.2177L24.959 34.046C24.7544 34.4431 24.4122 34.7521 23.9963 34.9153C23.5805 35.0786 23.1194 35.0848 22.6993 34.9329L29.1677 26.255L23.1497 18.4139C24.0425 18.0914 25.0377 18.4415 25.5343 19.2498L30.0183 25.3071L34.5288 19.2734C34.735 18.8831 35.0774 18.5821 35.491 18.4279C35.9045 18.2736 36.3604 18.2767 36.7718 18.4365L34.4364 21.535L31.273 25.6522C31.1852 25.7306 31.1149 25.8267 31.0669 25.9341C31.0188 26.0416 30.9939 26.158 30.9939 26.2757C30.9939 26.3934 31.0188 26.5098 31.0669 26.6172C31.1149 26.7246 31.1852 26.8207 31.273 26.8991L37.2979 34.9408H37.3107ZM64.7752 18.3303V19.5103C63.9288 19.4548 63.0802 19.5774 62.2841 19.8701C61.488 20.1629 60.7622 20.6193 60.1534 21.2099C59.5446 21.8005 59.0664 22.5122 58.7497 23.2991C58.433 24.0859 58.2848 24.9304 58.3147 25.7781C58.3147 28.5341 58.3147 31.29 58.3147 34.046V34.9831H57.1179V18.4041H58.2979V21.8015C59.7454 19.3235 61.9795 18.4041 64.783 18.3372L64.7752 18.3303ZM7.21083 26.1469L7.7379 23.544C9.18536 18.3972 15.0854 16.2555 19.1446 19.4435C21.5213 21.3098 22.1142 23.954 21.9982 26.9335H8.60815C8.39181 32.2553 12.2317 35.4689 17.1435 33.8287C18.762 33.2387 19.9804 31.8935 20.3816 30.2218C20.6412 29.386 21.0699 29.2424 21.8546 29.4843C21.7238 30.5032 21.3636 31.4791 20.8012 32.3387C20.2388 33.1983 19.4888 33.9192 18.6077 34.4472C17.1519 35.2433 15.4817 35.5588 13.8358 35.3484C12.1899 35.1381 10.6527 34.4127 9.44398 33.276C8.24825 31.9318 7.52648 30.2326 7.38586 28.438C7.38586 28.143 7.28753 27.8677 7.2187 27.6022C7.21214 27.1059 7.20886 26.6208 7.20886 26.1469H7.21083ZM8.62486 25.787H20.7336C20.6579 21.9293 18.2232 19.1927 14.9762 19.1672C11.3615 19.118 8.77531 21.7946 8.61601 25.7702L8.62486 25.787Z" fill="white"/>
</svg>
