<svg width="118" height="118" viewBox="0 0 118 118" fill="none" xmlns="http://www.w3.org/2000/svg">
<g clip-path="url(#clip0_40_44)">
<path d="M0 59C0 26.4153 26.4153 0 59 0C91.5847 0 118 26.4153 118 59C118 91.5847 91.5847 118 59 118C26.4153 118 0 91.5847 0 59Z" fill="#333333"/>
<path d="M47.2 94.3998C53.7171 94.3998 59 89.1168 59 82.5998V70.7998H47.2C40.683 70.7998 35.4 76.083 35.4 82.5998C35.4 89.1168 40.683 94.3998 47.2 94.3998Z" fill="#0ACF83"/>
<path d="M35.4 58.9999C35.4 52.4829 40.683 47.2 47.2 47.2H59V70.7999H47.2C40.683 70.7999 35.4 65.5167 35.4 58.9999Z" fill="#A259FF"/>
<path d="M35.4 35.3999C35.4 28.8829 40.683 23.5999 47.2 23.5999H59V47.1999H47.2C40.683 47.1999 35.4 41.9167 35.4 35.3999Z" fill="#F24E1E"/>
<path d="M59 23.5999H70.8C77.317 23.5999 82.6 28.8829 82.6 35.3999C82.6 41.9167 77.317 47.1999 70.8 47.1999H59V23.5999Z" fill="#FF7262"/>
<path d="M82.6 58.9999C82.6 65.5167 77.317 70.7999 70.8 70.7999C64.283 70.7999 59 65.5167 59 58.9999C59 52.4829 64.283 47.2 70.8 47.2C77.317 47.2 82.6 52.4829 82.6 58.9999Z" fill="#1ABCFE"/>
</g>
<defs>
<clipPath id="clip0_40_44">
<rect width="118" height="118" fill="white"/>
</clipPath>
</defs>
</svg>
