<svg width="128" height="128" viewBox="0 0 128 128" fill="none" xmlns="http://www.w3.org/2000/svg">
<path d="M117.888 59.0121L68.988 10.1121C68.3191 9.44083 67.5243 8.90824 66.6491 8.54485C65.7739 8.18145 64.8356 7.99438 63.888 7.99438C62.9404 7.99438 62.0021 8.18145 61.1269 8.54485C60.2517 8.90824 59.4569 9.44083 58.788 10.1121L48.632 20.2681L61.512 33.1481C63.0308 32.6312 64.6643 32.5514 66.2263 32.9177C67.7883 33.2839 69.216 34.0816 70.3467 35.2199C71.4774 36.3581 72.2656 37.791 72.6216 39.3554C72.9775 40.9198 72.8869 42.5527 72.36 44.0681L84.76 56.4681C86.6135 55.8313 88.6292 55.8489 90.4713 56.518C92.3134 57.187 93.8706 58.4671 94.8835 60.1449C95.8964 61.8227 96.3037 63.7969 96.0377 65.7386C95.7717 67.6803 94.8483 69.4722 93.4215 70.8157C91.9947 72.1593 90.1505 72.9733 88.1964 73.1222C86.2422 73.2712 84.296 72.7459 82.6821 71.6341C81.0682 70.5223 79.8839 68.891 79.3268 67.0121C78.7696 65.1331 78.8731 63.12 79.62 61.3081L68.04 49.7281V80.1961C69.7942 81.0652 71.1976 82.5091 72.0166 84.2872C72.8355 86.0654 73.0205 88.0704 72.5408 89.9684C72.0611 91.8664 70.9456 93.5427 69.3801 94.7182C67.8146 95.8937 65.8936 96.4973 63.9371 96.4285C61.9806 96.3598 60.1068 95.6228 58.6277 94.3403C57.1486 93.0578 56.1535 91.3073 55.8082 89.3803C55.4629 87.4533 55.7882 85.4662 56.73 83.7499C57.6718 82.0337 59.1731 80.6919 60.984 79.9481V49.2001C59.9364 48.7702 58.9841 48.1374 58.1821 47.3379C57.3802 46.5385 56.7443 45.5883 56.3111 44.542C55.878 43.4958 55.6561 42.3741 55.6583 41.2418C55.6605 40.1094 55.8868 38.9886 56.324 37.9441L43.644 25.2561L10.112 58.8001C9.44016 59.469 8.90707 60.2641 8.54331 61.1397C8.17956 62.0152 7.99231 62.954 7.99231 63.9021C7.99231 64.8502 8.17956 65.7889 8.54331 66.6645C8.90707 67.54 9.44016 68.3351 10.112 69.0041L59.012 117.888C59.6809 118.559 60.4757 119.092 61.3509 119.455C62.2261 119.819 63.1644 120.006 64.112 120.006C65.0596 120.006 65.9979 119.819 66.8731 119.455C67.7483 119.092 68.5431 118.559 69.212 117.888L117.888 69.2001C118.56 68.5311 119.093 67.736 119.457 66.8605C119.82 65.9849 120.008 65.0462 120.008 64.0981C120.008 63.15 119.82 62.2112 119.457 61.3357C119.093 60.4601 118.56 59.665 117.888 58.9961" fill="#DD4C35"/>
<path d="M48.632 20.2681L61.512 33.1481C63.0308 32.6312 64.6643 32.5514 66.2263 32.9177C67.7883 33.284 69.216 34.0817 70.3467 35.2199C71.4774 36.3581 72.2656 37.791 72.6216 39.3554C72.9776 40.9198 72.8869 42.5527 72.36 44.0681L84.76 56.4681C86.6135 55.8313 88.6292 55.8489 90.4713 56.518C92.3134 57.187 93.8706 58.4671 94.8835 60.1449C95.8964 61.8227 96.3037 63.7969 96.0377 65.7386C95.7717 67.6803 94.8483 69.4722 93.4215 70.8157C91.9947 72.1593 90.1505 72.9733 88.1964 73.1222C86.2422 73.2712 84.296 72.746 82.6821 71.6341C81.0682 70.5223 79.8839 68.891 79.3268 67.0121C78.7696 65.1331 78.8731 63.12 79.62 61.3081L68.04 49.7281V80.1961C69.7942 81.0652 71.1976 82.5091 72.0166 84.2872C72.8355 86.0654 73.0205 88.0704 72.5408 89.9684C72.0611 91.8664 70.9456 93.5428 69.3801 94.7182C67.8146 95.8937 65.8936 96.4973 63.9371 96.4285C61.9806 96.3598 60.1068 95.6228 58.6277 94.3403C57.1486 93.0578 56.1535 91.3073 55.8082 89.3803C55.4629 87.4533 55.7882 85.4662 56.73 83.75C57.6718 82.0337 59.1731 80.6919 60.984 79.9481V49.2001C59.9364 48.7702 58.9841 48.1374 58.1821 47.3379C57.3802 46.5385 56.7443 45.5883 56.3111 44.542C55.878 43.4958 55.6561 42.3741 55.6583 41.2418C55.6605 40.1094 55.8868 38.9886 56.324 37.9441L43.644 25.2561" fill="white"/>
</svg>
