<svg width="128" height="128" viewBox="0 0 128 128" fill="none" xmlns="http://www.w3.org/2000/svg">
<path d="M119.414 33.4406C113.691 23.6349 105.928 15.8717 96.1232 10.1493C86.3169 4.42655 75.6114 1.56592 63.999 1.56592C52.388 1.56592 41.679 4.42743 31.8747 10.1493C22.069 15.8714 14.3064 23.6349 8.58336 33.4406C2.86122 43.2461 0 53.9537 0 65.5631C0 79.5088 4.06869 92.049 12.2081 103.187C20.3467 114.326 30.8605 122.034 43.7486 126.311C45.2489 126.59 46.3594 126.394 47.0815 125.729C47.8039 125.063 48.1647 124.228 48.1647 123.23C48.1647 123.063 48.1504 121.564 48.1226 118.73C48.094 115.896 48.0806 113.424 48.0806 111.315L46.1639 111.646C44.9418 111.87 43.4001 111.965 41.5389 111.938C39.6785 111.912 37.7472 111.717 35.7476 111.355C33.7471 110.995 31.8864 110.162 30.1641 108.856C28.4426 107.551 27.2205 105.842 26.4981 103.732L25.6649 101.815C25.1094 100.538 24.235 99.1199 23.0403 97.5654C21.8457 96.0094 20.6377 94.9546 19.4156 94.3992L18.8321 93.9815C18.4434 93.7039 18.0826 93.3692 17.749 92.9807C17.4157 92.5922 17.1661 92.2034 16.9995 91.8141C16.8325 91.4244 16.9709 91.1048 17.416 90.8541C17.8611 90.6034 18.6655 90.4817 19.8327 90.4817L21.4987 90.7307C22.6098 90.9534 23.9843 91.6185 25.6237 92.7303C27.2623 93.8411 28.6093 95.2853 29.665 97.0622C30.9434 99.3406 32.4836 101.077 34.29 102.271C36.0949 103.466 37.9147 104.062 39.7477 104.062C41.5806 104.062 43.1637 103.923 44.4976 103.647C45.83 103.369 47.0801 102.951 48.2472 102.396C48.7472 98.6725 50.1085 95.8118 52.33 93.8122C49.1637 93.4795 46.3171 92.9784 43.7886 92.312C41.2616 91.6448 38.6502 90.562 35.9562 89.0606C33.2608 87.5612 31.0248 85.6994 29.2476 83.4782C27.4701 81.2559 26.0113 78.3384 24.8733 74.7282C23.7347 71.1166 23.1653 66.9504 23.1653 62.2285C23.1653 55.5052 25.3601 49.784 29.749 45.0615C27.6931 40.0069 27.8872 34.3405 30.3319 28.0629C31.943 27.5623 34.3323 27.938 37.4985 29.1875C40.6653 30.4376 42.9839 31.5084 44.4567 32.3963C45.9295 33.2839 47.1095 34.0361 47.9986 34.6461C53.1662 33.2022 58.499 32.4801 63.9984 32.4801C69.4978 32.4801 74.8318 33.2022 79.9997 34.6461L83.1662 32.647C85.3316 31.3132 87.8887 30.0908 90.8313 28.9797C93.7757 27.8691 96.0272 27.5632 97.5835 28.0638C100.082 34.3416 100.305 40.0077 98.2486 45.0624C102.637 49.7849 104.833 55.5076 104.833 62.2294C104.833 66.9513 104.261 71.1306 103.125 74.7699C101.986 78.4099 100.515 81.3245 98.7101 83.52C96.9031 85.7151 94.6528 87.5624 91.9588 89.0614C89.2643 90.5617 86.652 91.6445 84.125 92.3117C81.5968 92.9789 78.7502 93.4804 75.584 93.8137C78.4717 96.3127 79.9159 100.257 79.9159 105.646V123.227C79.9159 124.226 80.2632 125.06 80.9585 125.726C81.6528 126.392 82.7494 126.587 84.2496 126.309C97.1395 122.032 107.653 114.324 115.792 103.185C123.929 92.0467 127.999 79.5064 127.999 65.5608C127.996 53.9528 125.134 43.2461 119.414 33.4406Z" fill="white"/>
</svg>
