<svg width="128" height="128" viewBox="0 0 128 128" fill="none" xmlns="http://www.w3.org/2000/svg">
<path d="M63.768 96.38C59.0324 96.4004 54.3104 95.8729 49.696 94.808C48.3244 94.4986 46.979 94.0827 45.672 93.5641L48.924 99.1201L50.196 116.48C50.196 118.428 56.38 120.004 64.004 120.004C71.628 120.004 77.812 118.428 77.812 116.48L78.82 98.9321L81.896 93.548C80.5782 94.075 79.2206 94.4964 77.836 94.808C73.2229 95.8726 68.5023 96.4001 63.768 96.38ZM82 39.892C76.0294 40.6345 70.0164 40.9833 64 40.9361C57.9836 40.9833 51.9706 40.6345 46 39.892C44.1036 39.662 42.2302 39.2713 40.4 38.724C39.9234 38.5762 39.4615 38.3847 39.02 38.1521L42 65.6C42.1387 65.128 42.2933 64.656 42.464 64.184C42.8097 63.2192 43.2103 62.275 43.664 61.356C44.1125 60.456 44.6147 59.5837 45.168 58.744C45.69 57.9497 46.2674 57.1931 46.896 56.48C47.4655 55.8291 48.0949 55.2332 48.776 54.7001C49.3733 54.231 50.0279 53.8398 50.724 53.536C51.3395 53.272 52.0023 53.136 52.672 53.1361C53.4311 53.1407 54.1747 53.3508 54.824 53.744C55.6127 54.2443 56.2775 54.9172 56.768 55.7121C56.8993 55.896 56.9893 56.1061 57.032 56.328C57.0679 56.522 57.0867 56.7188 57.088 56.916C57.1086 57.2848 56.9981 57.649 56.776 57.944C56.6901 58.0596 56.5786 58.1537 56.4502 58.219C56.3218 58.2842 56.18 58.3188 56.036 58.32C55.8923 58.313 55.752 58.2733 55.6259 58.204C55.4997 58.1347 55.391 58.0376 55.308 57.92C55.0225 57.55 54.7709 57.1551 54.556 56.7401C54.3521 56.3426 54.0574 55.9986 53.696 55.736C53.395 55.5321 53.0396 55.4234 52.676 55.424C52.0069 55.4598 51.3666 55.7078 50.848 56.132C50.13 56.6721 49.4835 57.3011 48.924 58.0041C48.2456 58.8426 47.6344 59.7334 47.096 60.668C46.5186 61.6579 46.0029 62.6825 45.552 63.736C45.1193 64.74 44.7623 65.7748 44.484 66.8321C44.2358 67.7249 44.1014 68.6455 44.084 69.572C44.085 69.8503 44.1037 70.1282 44.14 70.404C44.1717 70.6714 44.2417 70.9327 44.348 71.18C44.4363 71.3985 44.5731 71.5941 44.748 71.752C44.9345 71.9053 45.1707 71.985 45.412 71.976C45.7742 71.9593 46.1269 71.8549 46.44 71.672C46.8641 71.4435 47.2659 71.1756 47.64 70.8721C48.0738 70.5234 48.4877 70.1508 48.88 69.756C49.296 69.3427 49.6827 68.9227 50.04 68.4961C50.3973 68.0694 50.7147 67.6614 50.992 67.2721C51.2278 66.9499 51.4365 66.6087 51.616 66.252L52.752 62.8521C52.8464 62.5356 53.0365 62.2562 53.296 62.052C53.497 61.9047 53.7388 61.8237 53.988 61.82C54.1036 61.8202 54.2184 61.8391 54.328 61.876C54.4465 61.9153 54.5547 61.9806 54.6447 62.0671C54.7347 62.1536 54.8042 62.2592 54.848 62.376C54.904 62.5214 54.9312 62.6763 54.928 62.8321C54.9299 63.2698 54.8884 63.7066 54.804 64.1361C54.7241 64.5419 54.6199 64.9426 54.492 65.336C54.3667 65.7227 54.2267 66.1107 54.072 66.5C53.9173 66.8894 53.7667 67.2974 53.62 67.724C53.548 67.8706 53.4891 68.0232 53.444 68.18C53.3587 68.4467 53.2547 68.768 53.132 69.144C53.0093 69.52 52.876 69.9521 52.732 70.4401L52.292 71.9001C52.14 72.396 51.996 72.8827 51.86 73.3601C51.724 73.8374 51.6 74.2694 51.488 74.656L51.212 75.6241C51.14 75.884 51.092 76.024 51.076 76.088C51.0264 76.2643 50.9608 76.4357 50.88 76.6C50.7913 76.788 50.6855 76.9674 50.564 77.1361C50.4508 77.2881 50.3161 77.4228 50.164 77.5361C50.0362 77.6407 49.8771 77.6998 49.712 77.7041C49.603 77.7132 49.4934 77.6941 49.3939 77.6486C49.2944 77.603 49.2083 77.5326 49.144 77.444C48.9997 77.1472 48.9389 76.8168 48.968 76.488V76.284C48.9642 76.2121 48.9642 76.14 48.968 76.0681C49.0198 75.7725 49.0974 75.482 49.2 75.2C49.3147 74.776 49.448 74.2961 49.6 73.7601C49.752 73.2241 49.9227 72.6694 50.112 72.0961C50.296 71.5227 50.4613 71.0094 50.608 70.556C50.176 71.0387 49.708 71.5187 49.204 71.9961C48.7158 72.4594 48.1974 72.8897 47.652 73.284C47.1514 73.6477 46.6153 73.96 46.052 74.2161C45.566 74.4447 45.037 74.5674 44.5 74.576C43.9839 74.59 43.4742 74.4598 43.028 74.2C42.952 74.156 42.884 74.104 42.816 74.0521L44.476 91.46C44.908 92.544 53.044 95.2041 63.776 95.2041C74.508 95.2041 82.652 92.5401 83.076 91.4561L85.476 70.7601L84.904 71.2881C84.2868 71.8671 83.6407 72.4145 82.968 72.9281C82.4203 73.3519 81.8241 73.709 81.192 73.992C80.606 74.2444 79.974 74.3724 79.336 74.368C78.8258 74.4019 78.3192 74.2608 77.9 73.9681C77.7337 73.8358 77.601 73.6662 77.5127 73.4729C77.4244 73.2797 77.3831 73.0683 77.392 72.8561V72.7481C77.3885 72.7068 77.3885 72.6653 77.392 72.6241C77.4488 72.2682 77.5781 71.9278 77.772 71.6241C78.0142 71.2173 78.2814 70.8258 78.572 70.4521C78.8813 70.0467 79.2107 69.6361 79.56 69.2201C79.9093 68.8041 80.2333 68.4107 80.532 68.0401C80.7973 67.714 81.0444 67.3734 81.272 67.02C81.4348 66.8 81.5356 66.5403 81.564 66.268C81.566 66.2156 81.5559 66.1634 81.5344 66.1155C81.5129 66.0676 81.4806 66.0254 81.44 65.992C81.3214 65.9155 81.1807 65.8803 81.04 65.892C80.6891 65.8978 80.3443 65.984 80.032 66.144C79.6626 66.3275 79.3173 66.5559 79.004 66.824C78.6508 67.1243 78.3205 67.4505 78.016 67.8001C77.6955 68.1659 77.3938 68.5477 77.112 68.944C76.832 69.3387 76.576 69.7387 76.344 70.144C76.112 70.5494 75.9147 70.9187 75.752 71.252L75.544 71.7C75.4533 71.892 75.356 72.1094 75.252 72.352C75.148 72.5947 75.036 72.8427 74.916 73.0961C74.7987 73.3627 74.6907 73.604 74.592 73.82L74.328 74.4281C74.2507 74.6067 74.196 74.7294 74.164 74.796C74.132 74.8627 74.0653 75.0267 73.964 75.2881C73.8707 75.5281 73.7627 75.8107 73.64 76.1361L73.24 77.156L72.86 78.168L72.548 79.0081C72.46 79.2481 72.4 79.4081 72.376 79.5C72.2972 79.7427 72.201 79.9793 72.088 80.208C71.9854 80.4186 71.8578 80.616 71.708 80.796C71.5712 80.9581 71.4058 81.0937 71.22 81.196C71.0312 81.2989 70.819 81.3513 70.604 81.348C70.3452 81.3591 70.0899 81.2861 69.876 81.14C69.7688 81.0385 69.6869 80.9133 69.6368 80.7743C69.5868 80.6354 69.5701 80.4866 69.588 80.34C69.5885 80.1406 69.6127 79.9418 69.66 79.7481C69.7094 79.5446 69.7708 79.3442 69.844 79.1481C69.916 78.9481 69.992 78.7481 70.072 78.5681C70.152 78.3881 70.22 78.2001 70.284 78.0241C70.724 77.0587 71.172 76.092 71.628 75.1241C72.084 74.1561 72.5213 73.1961 72.94 72.2441C73.028 72.0441 73.108 71.844 73.192 71.656L73.116 71.7321C72.6124 72.2167 72.0779 72.6683 71.516 73.084C71.03 73.4505 70.5056 73.763 69.952 74.016C69.4796 74.2374 68.9656 74.356 68.444 74.364C68.1569 74.373 67.8715 74.3184 67.608 74.2041C67.3961 74.1071 67.2118 73.9585 67.072 73.7721C66.9318 73.577 66.8338 73.355 66.784 73.1201C66.784 73.0361 66.752 72.9441 66.74 72.8561C66.596 72.9681 66.452 73.076 66.308 73.18C65.8401 73.515 65.3404 73.803 64.816 74.0401C64.4033 74.2386 63.9537 74.3489 63.496 74.364C63.318 74.3692 63.1409 74.3361 62.9767 74.2671C62.8125 74.1981 62.665 74.0948 62.544 73.964C62.2624 73.5802 62.1327 73.1058 62.18 72.6321C62.1898 72.1105 62.2555 71.5916 62.376 71.084C62.1436 71.4882 61.8759 71.871 61.576 72.228C61.2529 72.6186 60.888 72.9727 60.488 73.284C60.0718 73.6063 59.611 73.8664 59.12 74.056C58.5941 74.2572 58.035 74.3576 57.472 74.352C57.21 74.3533 56.9491 74.3197 56.696 74.252C56.4549 74.1876 56.2318 74.0685 56.044 73.904C55.8442 73.722 55.6895 73.4961 55.592 73.2441C55.4678 72.9132 55.4094 72.5613 55.42 72.208C55.42 72.208 55.42 72.052 55.468 71.768C55.539 71.313 55.6433 70.8638 55.78 70.4241C55.956 69.8107 56.2227 69.0107 56.58 68.0241C56.9373 67.0374 57.4547 65.8561 58.132 64.4801C58.2571 64.1668 58.461 63.8912 58.724 63.68C58.935 63.5247 59.19 63.4406 59.452 63.44C59.5725 63.4413 59.6922 63.4588 59.808 63.4921C59.9308 63.5259 60.047 63.5799 60.152 63.6521C60.2567 63.724 60.3441 63.8183 60.408 63.9281C60.4768 64.0498 60.51 64.1884 60.504 64.3281C60.5049 64.4213 60.4928 64.5142 60.468 64.604C60.403 64.8274 60.3145 65.0433 60.204 65.2481C60.0707 65.5147 59.9133 65.8187 59.732 66.1601C59.5507 66.5014 59.3613 66.8707 59.164 67.268C58.964 67.6627 58.7787 68.0721 58.608 68.4961C58.4374 68.9195 58.2905 69.3522 58.168 69.792C58.0493 70.2092 57.9795 70.6388 57.96 71.072C57.9589 71.2388 58.0017 71.403 58.084 71.548C58.1237 71.618 58.1822 71.6753 58.253 71.7135C58.3237 71.7517 58.4038 71.7692 58.484 71.764C59.0321 71.758 59.5636 71.5757 60 71.2441C60.5018 70.8757 60.9501 70.4396 61.332 69.948C61.744 69.4239 62.1132 68.8674 62.436 68.284C62.7667 67.692 63.0413 67.1494 63.26 66.656C63.4173 66.3136 63.5509 65.9608 63.66 65.6C63.7748 65.2465 63.9084 64.8994 64.06 64.56C64.1788 64.2716 64.3392 64.0021 64.536 63.76C64.6161 63.6589 64.7183 63.5774 64.8348 63.522C64.9513 63.4665 65.079 63.4385 65.208 63.44C65.3422 63.4351 65.4756 63.4627 65.5968 63.5205C65.718 63.5784 65.8234 63.6647 65.904 63.772C66.078 64.0017 66.1684 64.284 66.16 64.572C66.1447 64.8181 66.0893 65.0599 65.996 65.2881C65.8867 65.5921 65.7533 65.9387 65.596 66.3281C65.4387 66.7174 65.2573 67.1347 65.052 67.5801C64.8573 68.0254 64.676 68.476 64.508 68.932C64.3513 69.3728 64.2178 69.8214 64.108 70.2761C64.0034 70.6758 63.9483 71.0869 63.944 71.5C63.9351 71.5719 63.943 71.6448 63.967 71.713C63.9911 71.7813 64.0306 71.8431 64.0826 71.8935C64.1345 71.9438 64.1974 71.9815 64.2664 72.0035C64.3354 72.0254 64.4085 72.0311 64.48 72.02C64.8081 72.0002 65.1284 71.9117 65.42 71.7601C65.8386 71.5594 66.2343 71.3139 66.6 71.028C66.704 70.948 66.808 70.868 66.908 70.784C67.0115 70.3395 67.1451 69.9025 67.308 69.476C67.5933 68.724 67.8827 67.9761 68.176 67.2321L68.976 65.1921L72.676 55.8601C72.781 55.536 72.9888 55.2551 73.268 55.0601C73.4917 54.9132 73.7524 54.8328 74.02 54.828C74.2706 54.8277 74.5136 54.9139 74.708 55.072C74.819 55.1716 74.9051 55.2959 74.9593 55.4349C75.0135 55.5738 75.0343 55.7236 75.02 55.8721C75.0171 56.0593 74.9819 56.2447 74.916 56.42C74.8387 56.6324 74.7505 56.8407 74.652 57.044C74.4493 57.4974 74.2067 58.052 73.924 58.708C73.6413 59.364 73.34 60.0774 73.02 60.848C72.6973 61.6187 72.368 62.4187 72.032 63.2481L71.044 65.684C70.724 66.484 70.4227 67.2334 70.14 67.932L69.412 69.7761C69.311 70.0301 69.2229 70.2891 69.148 70.5521C69.0675 70.8113 69.0244 71.0806 69.02 71.352C69.014 71.4723 69.0388 71.5921 69.092 71.7C69.1216 71.7461 69.1636 71.7829 69.2131 71.8062C69.2626 71.8295 69.3177 71.8385 69.372 71.8321C69.5956 71.8175 69.8136 71.7562 70.012 71.6521C70.3006 71.5139 70.5787 71.3548 70.844 71.1761C71.1427 70.9787 71.452 70.7521 71.772 70.4961C72.092 70.2401 72.412 69.9734 72.732 69.696C73.0493 69.4294 73.3533 69.1547 73.644 68.8721C73.9347 68.5894 74.1933 68.336 74.42 68.112C74.4734 68.0581 74.5374 68.0159 74.608 67.988C74.744 67.588 74.872 67.1881 74.98 66.7881C75.044 66.6147 75.1333 66.368 75.248 66.048C75.3655 65.7282 75.499 65.4145 75.648 65.1081C75.7815 64.8229 75.948 64.5544 76.144 64.308C76.2138 64.2152 76.3036 64.1393 76.4068 64.0859C76.51 64.0326 76.6239 64.0032 76.74 64C76.867 63.9885 76.995 64.0024 77.1165 64.0408C77.2381 64.0793 77.3508 64.1416 77.448 64.224C77.5264 64.3141 77.5863 64.4188 77.624 64.532C77.6618 64.6453 77.6767 64.765 77.668 64.8841C77.6653 64.9764 77.6573 65.0686 77.644 65.1601C77.644 65.2841 77.608 65.42 77.584 65.56C77.56 65.7 77.532 65.8321 77.504 65.96C77.4846 66.054 77.4579 66.1463 77.424 66.236C77.7253 65.9081 78.0507 65.5827 78.4 65.2601C78.7419 64.9432 79.1055 64.6505 79.488 64.3841C79.8474 64.1326 80.2322 63.9194 80.636 63.7481C81.0065 63.5893 81.405 63.5064 81.808 63.5041C82.0788 63.5044 82.3482 63.5434 82.608 63.62C82.8618 63.6919 83.1012 63.807 83.316 63.96C83.524 64.1092 83.6973 64.3016 83.824 64.5241C83.9602 64.7682 84.0279 65.0446 84.02 65.324C84.0104 65.7631 83.9081 66.1952 83.72 66.5921C83.5079 67.0631 83.2563 67.5154 82.968 67.944C82.6667 68.3974 82.3413 68.8387 81.992 69.268C81.6427 69.6974 81.3147 70.0881 81.008 70.4401L80.236 71.336C80.0922 71.4765 79.9815 71.6474 79.912 71.836C79.9103 71.9418 79.9506 72.0439 80.024 72.1201C80.128 72.2024 80.26 72.2411 80.392 72.228C80.6114 72.1999 80.8211 72.1204 81.004 71.9961C81.3973 71.7547 81.7742 71.4874 82.132 71.196C82.6173 70.8147 83.232 70.3041 83.976 69.6641C84.488 69.2241 85.084 68.7 85.76 68.104L88.992 38.184C88.5506 38.4168 88.0886 38.6083 87.612 38.7561C85.7769 39.2932 83.8995 39.6732 82 39.892ZM64 32.8C50.032 32.8 38.712 34.36 38.712 36.288C38.712 38.216 50 39.7681 64 39.7681C78 39.7681 89.288 38.208 89.288 36.28C89.288 34.352 77.952 32.8 64 32.8ZM74.096 37.308C74.096 37.76 72.752 38.1081 71.092 38.1081C69.432 38.1081 68.088 37.74 68.088 37.308C68.088 36.876 69.432 36.508 71.092 36.508C72.752 36.508 74.084 36.848 74.084 37.3L74.096 37.308Z" fill="#DA4648"/>
<path d="M68.68 36.9359C68.6653 36.9571 68.657 36.9821 68.656 37.0079C68.656 37.2999 69.74 37.5359 71.056 37.5359C72.372 37.5359 73.456 37.2999 73.456 37.0079L76.616 24.2079L89.184 10.9399C89.448 10.6399 88.912 9.70791 88.016 8.90791C87.12 8.10791 86.152 7.83991 85.852 8.14391L72.488 22.2359L68.68 36.9359Z" fill="#DA4648"/>
</svg>
