<svg width="118" height="118" viewBox="0 0 118 118" fill="none" xmlns="http://www.w3.org/2000/svg">
<path d="M21.7636 100.304L13.4778 7.375H104.522L96.2253 100.289L58.9447 110.625L21.7636 100.304Z" fill="#E44F26"/>
<path d="M59 102.726L89.1269 94.3741L96.2142 14.9749H59V102.726Z" fill="#F1662A"/>
<path d="M59 49.4384H43.9181L42.8783 37.7674H59V26.3694H58.9594H30.4219L30.6948 29.43L33.4936 60.8364H59V49.4384Z" fill="#EBEBEB"/>
<path d="M59 79.038L58.9484 79.0527L46.256 75.627L45.4448 66.5374H39.2756H34.0024L35.5991 84.4291L58.9484 90.9117L59 90.897V79.038Z" fill="#EBEBEB"/>
<path d="M58.9594 49.4382V60.8363H72.9941L71.6739 75.6195L58.9594 79.0489V90.9079L82.3271 84.4289L82.4968 82.504L85.1739 52.4989L85.4541 49.4382H82.3824H58.9594Z" fill="white"/>
<path d="M58.9594 26.3694V33.4494V37.7416V37.7674H86.4534H86.4903L86.7189 35.2083L87.2389 29.43L87.5118 26.3694H58.9594Z" fill="white"/>
</svg>
