<svg width="118" height="118" viewBox="0 0 118 118" fill="none" xmlns="http://www.w3.org/2000/svg">
<path d="M99.8906 58.2108C99.8906 55.6622 98.8782 53.218 97.076 51.4158C95.2739 49.6137 92.8296 48.6012 90.281 48.6012C89.9435 48.6009 89.6063 48.6181 89.2706 48.6528L102.472 9.72021H46.3739L59.5567 48.6197C59.365 48.6197 59.1696 48.6012 58.9741 48.6012C56.6793 48.5986 54.4594 49.4172 52.7157 50.9091C50.9721 52.401 49.8199 54.4676 49.4675 56.7352C49.1151 59.0028 49.5858 61.3216 50.7945 63.2722C52.0031 65.2229 53.8699 66.6767 56.0573 67.3706C54.0131 70.8902 51.4679 74.0937 48.5016 76.8807C44.6403 80.5719 40.0529 83.4188 35.0312 85.2402C32.2176 83.9068 30.0172 81.5524 28.8768 78.6553C27.7365 75.7581 27.7417 72.5355 28.8915 69.6421C29.1754 68.9783 29.4631 68.3072 29.7359 67.6361C31.8786 67.1315 33.7831 65.9069 35.1313 64.1668C36.4796 62.4268 37.1898 60.2767 37.1434 58.076C37.097 55.8752 36.2967 53.7571 34.8762 52.0754C33.4558 50.3938 31.5013 49.2506 29.3393 48.8368C27.1773 48.423 24.9388 48.7638 22.9978 49.8021C21.0568 50.8403 19.5309 52.5133 18.6751 54.5414C17.8194 56.5695 17.6855 58.8298 18.296 60.9447C18.9064 63.0596 20.2242 64.901 22.029 66.1611C18.9616 71.7229 16.6206 77.6554 15.0634 83.8132C13.758 91.686 15.0634 100.038 21.8668 104.762C37.7231 115.754 54.94 97.9473 73.0899 93.4744C79.6684 91.8519 86.8885 92.1137 92.6816 88.7581C94.7745 87.5661 96.5793 85.9279 97.968 83.96C99.3567 81.992 100.295 79.7425 100.717 77.3711C101.102 75.1114 101.029 72.7973 100.503 70.5663C99.9766 68.3352 99.0072 66.2327 97.6523 64.3837C99.0979 62.6561 99.8891 60.4746 99.8869 58.2219L99.8906 58.2108ZM68.5874 58.2625V58.2293C68.5902 56.5756 68.1651 54.9493 67.3536 53.5084C66.542 52.0675 65.3716 50.861 63.9559 50.0062L74.4432 28.7625L84.9526 50.2016C83.6341 51.0777 82.5531 52.2667 81.8061 53.6623C81.0591 55.0579 80.6692 56.6168 80.6714 58.1998C80.6714 58.2698 80.6714 58.3399 80.6714 58.41L68.5874 58.2625Z" fill="#C63D14"/>
<path d="M102.24 58.2109C102.236 55.4245 101.261 52.7267 99.4815 50.5822C97.7025 48.4377 95.2313 46.9808 92.4935 46.4625L105.746 7.375H43.1032L56.3782 46.5399C54.0606 47.058 51.95 48.2546 50.3154 49.9773C48.6809 51.7 47.5967 53.8706 47.201 56.2121C46.8054 58.5536 47.1162 60.9599 48.094 63.124C49.0717 65.2881 50.672 67.1118 52.6907 68.3626C51.023 70.84 49.0837 73.1232 46.9087 75.1697C43.5419 78.3909 39.5855 80.9325 35.2562 82.6553C33.2244 81.4759 31.6843 79.6055 30.9167 77.3852C30.1491 75.165 30.2051 72.7427 31.0745 70.5603L31.222 70.2174L31.4949 69.5721C33.9526 68.72 36.0657 67.0903 37.5142 64.9297C38.9627 62.7692 39.6677 60.1955 39.5225 57.5983C39.3773 55.0012 38.3897 52.5221 36.7094 50.5365C35.0291 48.5509 32.7475 47.1669 30.2102 46.5941C27.6729 46.0213 25.018 46.2909 22.6476 47.3621C20.2772 48.4333 18.3204 50.2477 17.0736 52.5305C15.8267 54.8134 15.3577 57.4404 15.7375 60.0137C16.1174 62.587 17.3254 64.9664 19.1787 66.7917C18.7804 67.6435 18.36 68.5064 17.9286 69.3951C15.5377 73.791 13.7987 78.5112 12.7661 83.4076C11.0514 93.7326 13.817 102.004 20.5504 106.668C24.1651 109.253 28.5004 110.637 32.9441 110.625C40.8058 110.625 48.7598 106.676 56.5441 102.811C61.9829 99.8533 67.721 97.4824 73.6615 95.7386C75.7892 95.2149 77.9795 94.8978 80.299 94.5622C85.0243 94.1847 89.6321 92.8975 93.869 90.7715C96.2583 89.4067 98.3183 87.5332 99.9031 85.2838C101.488 83.0343 102.559 80.4639 103.04 77.7546C103.823 73.1517 102.918 68.4207 100.492 64.4317C101.64 62.5586 102.246 60.404 102.243 58.2072L102.24 58.2109ZM97.5454 58.2109C97.5454 59.6476 97.1194 61.0521 96.3211 62.2467C95.5229 63.4414 94.3884 64.3725 93.061 64.9223C91.7336 65.4721 90.273 65.616 88.8638 65.3357C87.4547 65.0554 86.1603 64.3635 85.1443 63.3476C84.1284 62.3316 83.4365 61.0372 83.1562 59.6281C82.8759 58.2189 83.0198 56.7583 83.5696 55.4309C84.1195 54.1035 85.0505 52.969 86.2452 52.1708C87.4398 51.3725 88.8443 50.9465 90.281 50.9465C92.2071 50.9485 94.0537 51.7144 95.4156 53.0763C96.7775 54.4383 97.5435 56.2848 97.5454 58.2109ZM99.1937 12.0692L87.4896 46.5842C86.9884 46.7054 86.4957 46.8594 86.0146 47.0451L74.4543 23.4451L62.8571 46.905C62.3522 46.7301 61.836 46.5896 61.312 46.4846L49.6485 12.0692H99.1937ZM58.9742 50.9465C60.4109 50.9465 61.8154 51.3725 63.01 52.1708C64.2046 52.969 65.1357 54.1035 65.6856 55.4309C66.2354 56.7583 66.3792 58.2189 66.0989 59.6281C65.8187 61.0372 65.1268 62.3316 64.1108 63.3476C63.0949 64.3635 61.8005 65.0554 60.3914 65.3357C58.9822 65.616 57.5216 65.4721 56.1942 64.9223C54.8668 64.3725 53.7323 63.4414 52.9341 62.2467C52.1358 61.0521 51.7098 59.6476 51.7098 58.2109C51.7117 56.2848 52.4777 54.4383 53.8396 53.0763C55.2015 51.7144 57.0481 50.9485 58.9742 50.9465ZM27.5493 51.0166C28.9867 51.0173 30.3915 51.4444 31.5861 52.2439C32.7806 53.0434 33.7111 54.1793 34.2598 55.5078C34.8085 56.8363 34.9508 58.2978 34.6686 59.7072C34.3863 61.1166 33.6924 62.4106 32.6744 63.4255C31.6565 64.4403 30.3604 65.1303 28.9501 65.4082C27.5398 65.6862 26.0788 65.5394 24.752 64.9867C23.4251 64.4339 22.2921 63.5 21.4963 62.303C20.7004 61.106 20.2776 59.6999 20.2812 58.2625C20.2832 56.3365 21.0492 54.4899 22.4111 53.128C23.773 51.7661 25.6196 51.0001 27.5456 50.9981L27.5493 51.0166ZM98.412 76.9544C98.0475 78.9871 97.2405 80.9147 96.0483 82.6009C94.856 84.287 93.3076 85.6904 91.5127 86.7116C87.7886 88.5197 83.7561 89.607 79.6278 89.916C77.2973 90.2516 74.8894 90.5982 72.5331 91.1808C66.2604 92.9972 60.2024 95.4859 54.4643 98.6037C42.7971 104.397 32.7081 109.401 23.2238 102.819C16.2655 97.9953 16.5863 89.0716 17.3976 84.1819C18.3523 79.7322 19.9445 75.4436 22.125 71.449C22.4642 70.7521 22.7961 70.0662 23.1206 69.3877C24.1111 69.7837 25.1505 70.0441 26.2107 70.1621C25.2722 73.477 25.5344 77.0169 26.9512 80.1574C28.3679 83.2979 30.8482 85.8371 33.9545 87.3274L34.8579 87.792L35.813 87.4527C41.1403 85.5299 46.0072 82.5155 50.102 78.6027C52.8069 76.0583 55.1828 73.1856 57.1747 70.0514C59.7232 70.4391 62.3287 69.9923 64.6025 68.7778C66.8763 67.5632 68.6965 65.6461 69.7914 63.3123C70.8863 60.9786 71.1973 58.3534 70.6779 55.8284C70.1586 53.3034 68.8368 51.014 66.9097 49.3019L74.4248 34.1057L82.0174 49.5932C79.8571 51.6751 78.5592 54.4936 78.3815 57.4885C78.2039 60.4834 79.1596 63.4356 81.0586 65.7583C82.9576 68.0809 85.661 69.6041 88.6315 70.0252C91.602 70.4462 94.6222 69.7342 97.0918 68.0307C98.4612 70.7945 98.9195 73.9212 98.4009 76.9618L98.412 76.9544Z" fill="white"/>
</svg>
