<svg width="118" height="118" viewBox="0 0 118 118" fill="none" xmlns="http://www.w3.org/2000/svg">
<path d="M110.625 7.375H7.375V110.625H110.625V7.375Z" fill="#F5DE19"/>
<path d="M76.7332 88.0391C77.6129 89.826 78.9797 91.328 80.676 92.3719C82.3723 93.4158 84.329 93.959 86.3207 93.9391C90.3401 93.9391 92.9102 91.9294 92.9102 89.1453C92.9102 85.8266 90.27 84.6392 85.845 82.7033L83.4186 81.6634C76.4124 78.6802 71.7661 74.9448 71.7661 67.0462C71.7661 59.7707 77.2974 54.2284 85.9741 54.2284C88.7829 54.0256 91.5892 54.6542 94.043 56.0359C96.4969 57.4176 98.4896 59.4912 99.7727 61.998L92.1875 66.847C91.6934 65.6041 90.8332 64.5406 89.7209 63.7978C88.6086 63.0549 87.2967 62.6677 85.9593 62.6875C85.3758 62.6291 84.7865 62.6929 84.229 62.8748C83.6715 63.0567 83.158 63.3528 82.7213 63.7441C82.2845 64.1354 81.9341 64.6134 81.6922 65.1476C81.4504 65.6819 81.3225 66.2606 81.3167 66.847C81.3167 69.7565 83.1199 70.9365 87.2831 72.747L89.7095 73.7869C97.9547 77.3232 102.616 80.9259 102.616 89.0273C102.616 97.763 95.7533 102.549 86.5383 102.549C82.9477 102.778 79.3677 101.963 76.2303 100.202C73.0928 98.4414 70.5319 95.8103 68.8567 92.6264L76.7332 88.0391ZM42.4579 88.8799C43.9808 91.5828 45.3673 93.869 48.7008 93.869C51.8868 93.869 53.9002 92.6227 53.9002 87.7736V54.7815H63.602V87.9027C63.602 97.9474 57.702 102.52 49.1138 102.52C46.0781 102.686 43.0632 101.929 40.4655 100.35C37.8677 98.7702 35.8088 96.4415 34.5592 93.6699L42.4579 88.8799Z" fill="black"/>
</svg>
