<svg width="118" height="118" viewBox="0 0 118 118" fill="none" xmlns="http://www.w3.org/2000/svg">
<path d="M103.875 27.9642L63.1807 4.35959C60.617 2.89934 57.2586 2.89934 54.6746 4.35959L13.6622 27.9642C11.0173 29.4862 9.21875 32.3468 9.21875 35.4065V82.553C9.21875 85.6127 11.0551 88.4742 13.7009 90.0045L24.5136 96.17C29.701 98.7255 31.1382 98.7255 33.4982 98.7255C41.1811 98.7255 45.171 94.0802 45.171 85.9778V39.4323C45.1719 38.775 45.5821 37.7969 44.9359 37.7969H39.7531C39.0967 37.7969 37.7969 38.775 37.7969 39.4314V85.9769C37.7969 89.5685 34.4634 93.1426 28.3919 90.1069L17.2169 83.6418C16.8279 83.4297 16.5938 83.0029 16.5938 82.553V35.4065C16.5938 34.9622 17.0206 34.516 17.4151 34.2883L58.3261 10.7242C58.7087 10.5076 59.2498 10.5076 59.6306 10.7242L100.159 34.2827C100.547 34.516 100.485 34.9483 100.485 35.4065V82.553C100.485 83.0029 100.57 83.4408 100.188 83.6574L59.5024 107.235C59.154 107.445 58.7004 107.445 58.3178 107.235L47.885 101.014C47.5706 100.831 47.1917 100.766 46.8893 100.934C43.99 102.578 43.4517 102.796 40.7321 103.74C40.0619 103.973 39.0737 104.377 41.1082 105.518L54.7502 113.588C56.0555 114.344 57.5407 114.737 59.0341 114.737C60.5478 114.737 62.0293 114.344 63.3356 113.588L103.876 90.0045C106.523 88.4632 107.86 85.6127 107.86 82.553V35.4065C107.859 32.3468 106.522 29.4936 103.875 27.9642ZM71.6546 75.0822C60.8437 75.0822 58.4635 72.0999 57.6697 66.7244C57.5757 66.1455 57.0853 65.4532 56.4953 65.4532H51.2129C50.5593 65.4532 50.0329 66.246 50.0329 66.8968C50.0329 73.7795 53.7757 82.1188 71.6546 82.1188C84.5959 82.1188 92.017 77.09 92.017 68.1902C92.017 59.366 86.0552 57.0503 73.5039 55.3891C60.817 53.7122 59.5282 52.865 59.5282 49.8928C59.5282 47.4425 60.6197 44.1745 70.0136 44.1745C78.4064 44.1745 81.5002 45.9758 82.7733 51.6333C82.883 52.1653 83.3688 52.5469 83.9174 52.5469H89.2218C89.5482 52.5469 89.8588 52.4151 90.0875 52.1819C90.3096 51.9311 90.4258 51.6167 90.3972 51.2793C89.574 41.536 83.1024 36.9958 70.0127 36.9958C58.3676 36.9958 51.4222 41.9131 51.4222 50.1556C51.4222 59.0959 58.3335 61.5665 69.5112 62.6719C82.883 63.9828 83.9229 65.9372 83.9229 68.5673C83.9229 73.1361 80.2557 75.0822 71.6546 75.0822Z" fill="#83CD29"/>
</svg>
