<svg width="118" height="118" viewBox="0 0 118 118" fill="none" xmlns="http://www.w3.org/2000/svg">
<path d="M110.768 7.55273H7.23828V110.447H110.768V7.55273Z" fill="#87BCF6"/>
<path d="M102.092 16.1758H15.9149V101.824H102.092V16.1758Z" fill="#252653"/>
<path fill-rule="evenodd" clip-rule="evenodd" d="M83.9962 48.0055C76.3297 44.1388 63.1309 46.012 63.1309 56.1001C63.1309 63.6126 68.3288 66.5695 74.6841 69.0514C83.7152 72.5768 74.9383 79.2398 63.9136 72.3494C63.9136 72.3494 63.5189 72.1554 63.3249 72.3494C63.1309 72.5434 63.1309 72.7374 63.1309 72.9381C63.1309 73.1321 63.1309 80.1764 63.1309 80.1764C66.9842 82.1498 69.8608 83.1533 74.3094 83.1065C88.6589 82.9593 90.726 69.2186 83.0931 63.9337C81.7083 62.9704 78.0022 61.0505 76.8315 60.6022C70.7639 58.2876 71.279 54.9963 73.2056 53.3372C75.333 51.4975 81.2333 54.2805 83.7152 55.8325C85.2204 56.7623 85.4679 55.605 85.4612 54.5882L85.4411 49.7783C85.4411 48.6343 85.0464 48.5407 83.9962 48.0055Z" fill="#87BCF6"/>
<path fill-rule="evenodd" clip-rule="evenodd" d="M39.6834 60.0202V42.3994C39.6834 42.3125 39.9912 42.0114 40.0714 42.0114C47.5372 41.6301 51.7851 43.0885 52.1665 51.0626C52.6013 60.2142 44.9282 60.4082 39.6834 60.4082V60.0202ZM30.6791 35.5492V82.9191H39.6834V67.6531C50.7482 68.4425 60.7293 64.4755 60.7293 51.6848C60.7293 46.527 59.1238 41.3358 55.3173 38.1983C49.999 33.8098 37.5695 34.7865 30.6791 35.5492Z" fill="#87BCF6"/>
</svg>
