<svg width="118" height="118" viewBox="0 0 118 118" fill="none" xmlns="http://www.w3.org/2000/svg">
<path d="M59 86.1584C87.5117 86.1584 110.625 73.9992 110.625 59C110.625 44.0008 87.5117 31.8416 59 31.8416C30.4883 31.8416 7.375 44.0008 7.375 59C7.375 73.9992 30.4883 86.1584 59 86.1584Z" fill="url(#paint0_radial_119_254)"/>
<path d="M59 84.1414C86.3977 84.1414 108.608 72.8852 108.608 59C108.608 45.1148 86.3977 33.8586 59 33.8586C31.6023 33.8586 9.39209 45.1148 9.39209 59C9.39209 72.8852 31.6023 84.1414 59 84.1414Z" fill="#6280B6"/>
<path d="M69.0484 67.1124L71.508 54.4495C71.8584 53.3658 71.9161 52.2087 71.6752 51.0955C71.4343 49.9823 70.9033 48.9526 70.1362 48.1107C67.995 46.5902 65.3732 45.902 62.7612 46.1748H58.5095L59.7301 39.906C59.7524 39.7893 59.7486 39.6691 59.719 39.554C59.6895 39.4389 59.6349 39.3318 59.5592 39.2402C59.4834 39.1486 59.3885 39.0749 59.281 39.0243C59.1735 38.9736 59.0561 38.9473 58.9373 38.9473H53.0373C52.85 38.9472 52.6684 39.0123 52.5238 39.1314C52.3792 39.2504 52.2804 39.4161 52.2445 39.6L49.63 53.0446C49.4288 51.6071 48.8182 50.2579 47.8711 49.158C46.8166 48.1019 45.5444 47.2885 44.1433 46.7746C42.7422 46.2606 41.2459 46.0584 39.7586 46.1821H28.3937C28.2064 46.1821 28.0249 46.2472 27.8802 46.3662C27.7356 46.4853 27.6368 46.651 27.6009 46.8348L22.313 74.0486C22.2908 74.1653 22.2946 74.2855 22.3241 74.4006C22.3537 74.5157 22.4083 74.6228 22.484 74.7144C22.5597 74.806 22.6547 74.8797 22.7622 74.9303C22.8697 74.981 22.987 75.0073 23.1059 75.0073H29.0169C29.2043 75.0074 29.3858 74.9423 29.5304 74.8232C29.6751 74.7042 29.7738 74.5385 29.8097 74.3546L31.0893 67.7725H35.5143C37.468 67.8246 39.4182 67.5759 41.2963 67.035C42.8798 66.511 44.328 65.6434 45.5369 64.4943C46.5276 63.5918 47.3734 62.5421 48.0444 61.382L46.9861 66.8211C46.9639 66.9378 46.9677 67.058 46.9972 67.1731C47.0267 67.2882 47.0813 67.3953 47.157 67.4869C47.2328 67.5785 47.3278 67.6522 47.4353 67.7028C47.5428 67.7535 47.6601 67.7798 47.7789 67.7798H53.6789C53.8663 67.7799 54.0478 67.7148 54.1924 67.5957C54.3371 67.4767 54.4358 67.311 54.4717 67.1271L57.3738 52.1891H61.4079C63.1263 52.1891 63.6204 52.532 63.7679 52.6795C63.9154 52.827 64.1367 53.288 63.8601 54.7777L61.5185 66.8174C61.4963 66.9341 61.5001 67.0543 61.5296 67.1694C61.5592 67.2845 61.6138 67.3916 61.6895 67.4832C61.7652 67.5748 61.8602 67.6485 61.9677 67.6991C62.0752 67.7498 62.1925 67.7761 62.3114 67.7761H68.2851C68.4689 67.769 68.6448 67.6993 68.7836 67.5786C68.9224 67.4579 69.0158 67.2934 69.0484 67.1124ZM41.7794 56.662C41.599 58.2101 40.8641 59.6406 39.7107 60.6888C38.2618 61.59 36.5628 62.0047 34.8616 61.8725H32.2361L34.1352 52.0969H37.5314C40.0278 52.0969 41.0308 52.6316 41.4364 53.0778C41.7458 53.6162 41.9365 54.2146 41.9957 54.8328C42.0548 55.451 41.9811 56.0747 41.7794 56.662Z" fill="white"/>
<path d="M94.2009 49.1618C93.1464 48.1057 91.8742 47.2923 90.4731 46.7784C89.072 46.2644 87.5756 46.0622 86.0884 46.1859H74.6903C74.503 46.1859 74.3214 46.251 74.1768 46.37C74.0322 46.4891 73.9334 46.6548 73.8975 46.8386L68.6096 74.0524C68.5874 74.1691 68.5912 74.2893 68.6207 74.4044C68.6502 74.5195 68.7048 74.6266 68.7806 74.7182C68.8563 74.8098 68.9513 74.8835 69.0588 74.9341C69.1663 74.9848 69.2836 75.0111 69.4024 75.0111H75.3319C75.5193 75.0112 75.7008 74.9461 75.8454 74.827C75.9901 74.708 76.0888 74.5423 76.1247 74.3585L77.4043 67.7763H81.8293C83.7831 67.8284 85.7332 67.5797 87.6113 67.0388C89.1949 66.5148 90.643 65.6472 91.8519 64.4981C93.9223 62.6322 95.3174 60.1338 95.8197 57.3923C96.2164 55.9898 96.2766 54.5134 95.9953 53.0833C95.714 51.6531 95.0992 50.3095 94.2009 49.1618ZM88.0538 56.6621C87.8734 58.2103 87.1386 59.6407 85.9851 60.6889C84.5327 61.5912 82.8295 62.0047 81.125 61.8689H78.5069L80.4059 52.0933H83.8021C86.2986 52.0933 87.3016 52.628 87.7072 53.0742C88.0177 53.6128 88.2093 54.2117 88.2691 54.8306C88.3289 55.4495 88.2555 56.074 88.0538 56.6621Z" fill="white"/>
<path d="M37.5314 51.2858C38.327 51.1856 39.1346 51.2442 39.9074 51.4582C40.6802 51.6721 41.403 52.0371 42.0338 52.5322C42.4409 53.1589 42.7005 53.8698 42.7931 54.6113C42.8857 55.3529 42.8089 56.1058 42.5685 56.8134C42.3577 58.5556 41.5155 60.1602 40.2012 61.3232C38.616 62.3441 36.7423 62.8229 34.8617 62.6875H31.2553L33.4678 51.2969L37.5314 51.2858ZM23.0875 74.2073H29.017L30.4219 66.9724H35.4996C37.3686 67.0234 39.2343 66.7859 41.0308 66.2681C42.5053 65.7813 43.853 64.9726 44.9765 63.9007C46.9211 62.1514 48.2308 59.8068 48.7008 57.2337C49.0729 55.9542 49.1383 54.605 48.8917 53.2955C48.645 51.9859 48.0933 50.753 47.2811 49.6965C46.3019 48.7279 45.1232 47.9846 43.8271 47.5184C42.5311 47.0522 41.1489 46.8744 39.7771 46.9972H28.3938L23.0875 74.2073Z" fill="#000004"/>
<path d="M53.052 39.7585H58.952L57.525 46.9934H62.7649C65.1716 46.7415 67.5894 47.3532 69.5868 48.7192C70.2479 49.4706 70.6998 50.3826 70.8972 51.3638C71.0946 52.345 71.0305 53.3608 70.7115 54.3094L68.2519 66.9723H62.2819L64.6234 54.9326C64.7865 54.4731 64.8446 53.9829 64.7936 53.4979C64.7426 53.013 64.5836 52.5456 64.3284 52.1301C63.4745 51.5184 62.4197 51.2547 61.3784 51.3926H56.6769L53.6457 66.9834H47.7457L53.052 39.7585Z" fill="#000004"/>
<path d="M83.8058 51.2858C84.6014 51.1856 85.4089 51.2442 86.1818 51.4582C86.9546 51.6721 87.6773 52.0371 88.3082 52.5322C88.7153 53.1589 88.9749 53.8698 89.0675 54.6113C89.1601 55.3529 89.0833 56.1058 88.8429 56.8134C88.6321 58.5556 87.7898 60.1602 86.4755 61.3232C84.8873 62.3465 83.0093 62.8254 81.1249 62.6875H77.5186L79.7311 51.2969L83.8058 51.2858ZM69.3618 74.2073H75.2913L76.6963 66.9724H81.7739C83.6429 67.0234 85.5086 66.7859 87.3052 66.2681C88.7796 65.7813 90.1274 64.9726 91.2508 63.9007C93.1954 62.1514 94.5052 59.8068 94.9752 57.2337C95.3473 55.9542 95.4127 54.605 95.166 53.2955C94.9194 51.9859 94.3676 50.753 93.5555 49.6965C92.5763 48.7279 91.3975 47.9846 90.1015 47.5184C88.8054 47.0522 87.4233 46.8744 86.0514 46.9972H74.6497L69.3618 74.2073Z" fill="#000004"/>
<defs>
<radialGradient id="paint0_radial_119_254" cx="0" cy="0" r="1" gradientUnits="userSpaceOnUse" gradientTransform="translate(38.3721 41.3922) scale(67.791 67.791)">
<stop stop-color="white"/>
<stop offset="0.5" stop-color="#4C6B96"/>
<stop offset="1" stop-color="#231F20"/>
</radialGradient>
</defs>
</svg>
