<svg width="114" height="118" viewBox="0 0 114 118" fill="none" xmlns="http://www.w3.org/2000/svg">
<path d="M113.832 72.3881C113.763 72.1718 113.67 71.98 113.556 71.803C112.873 70.51 111.211 70.1215 108.605 70.6624C100.478 72.339 97.3265 71.3065 96.1859 70.569C102.784 60.4996 108.207 48.3358 111.137 36.9881C112.47 31.8207 115.061 19.6618 111.737 13.7225C111.516 13.3095 111.27 12.921 110.995 12.567C104.657 4.46437 95.355 0.12295 84.0909 3.35037e-05C76.7355 -0.0737165 70.4668 1.7012 68.7705 2.35512C67.9445 2.2027 67.0989 2.06503 66.2335 1.95195C64.2128 1.5832 62.0642 1.36195 59.7878 1.32262C53.9763 1.2292 48.9515 2.62062 44.792 5.45753C40.5735 3.8842 21.246 -2.62547 9.28379 5.85087C2.60205 10.5856 -0.480705 19.0423 0.114211 30.9947C0.315795 35.0165 2.60696 47.3869 6.22071 59.236C8.48238 66.6455 10.8375 72.5209 13.2663 76.8475C15.9852 81.7347 18.8025 84.6798 21.6935 85.6484C23.8912 86.381 27.264 86.3564 30.8286 82.069C34.7669 77.3294 38.6461 73.0912 40.3915 71.218C42.5303 72.3734 44.846 72.9978 47.2257 73.0715V73.0912C46.7439 73.6615 46.3456 74.163 46.0113 74.5908C44.3445 76.705 44.0004 77.1475 38.6363 78.2488C37.1121 78.5635 33.0608 79.3993 33.0018 82.2411C32.987 82.841 33.164 83.3769 33.4541 83.8489C34.5702 85.9286 37.9824 86.848 38.4445 86.9611C45.0083 88.6033 50.7559 87.4135 55.0186 83.6227C54.935 94.5918 55.4021 105.34 56.7149 108.634C57.8113 111.358 60.4663 118 68.859 118C70.0882 118 71.4452 117.857 72.9399 117.538C81.7014 115.66 85.5069 111.785 86.977 103.25C87.7145 98.9676 88.9535 89.1146 89.627 83.0868C89.7106 82.7426 89.804 82.4919 89.9073 82.4181C89.9073 82.4181 90.2515 82.187 92.0067 82.5705C92.0805 82.5853 92.1493 82.5951 92.223 82.605L93.4719 82.7131C93.4965 82.7131 93.521 82.718 93.5456 82.718C97.71 82.9098 102.941 82.015 105.99 80.599C109.156 79.1289 114.869 75.52 113.832 72.3881ZM9.65746 58.3904C5.99946 46.4183 3.86563 34.3725 3.69846 30.9996C3.16254 20.3206 5.74871 12.8915 11.3783 8.90903C20.4102 2.52228 35.175 6.24912 41.4093 8.26987C41.3945 8.28462 41.3749 8.29937 41.3601 8.31412C31.4088 18.3638 31.6448 35.5328 31.6694 36.585C31.6694 36.9881 31.7038 37.5634 31.748 38.35C31.9201 41.2361 32.2397 46.61 31.3891 52.6969C30.5975 58.351 32.343 63.8872 36.173 67.8845C36.5713 68.2975 36.9843 68.6859 37.412 69.0546C35.706 70.8787 32.0037 74.9202 28.0556 79.6648C25.263 83.018 23.3356 82.3788 22.7014 82.1674C20.774 81.5233 18.7041 79.2813 16.6096 75.6626C14.2595 71.5326 11.8798 65.672 9.65746 58.3904ZM39.1919 83.4015C38.3511 83.19 37.5841 82.8459 37.0679 82.5312C37.5055 82.3395 38.2331 82.0887 39.4426 81.838C45.7507 80.54 46.7242 79.6205 48.8531 76.9213C49.3399 76.3018 49.8955 75.5987 50.6575 74.7432C50.8247 74.5564 50.9476 74.34 51.0214 74.104C51.8621 73.3616 52.3587 73.5632 53.17 73.8975C53.937 74.2171 54.6843 75.1759 54.9842 76.233C55.1268 76.7345 55.289 77.6785 54.763 78.416C50.3183 84.6503 43.843 84.5667 39.1919 83.4015ZM49.4874 63.7987L49.2268 64.492C48.5729 66.2472 47.9632 67.8746 47.5895 69.4234C44.3101 69.4135 41.1143 68.0123 38.6855 65.4802C35.5978 62.2598 34.1965 57.7807 34.8406 53.1885C35.7404 46.7526 35.411 41.1525 35.229 38.1435C35.2045 37.7207 35.1799 37.352 35.17 37.0619C36.6254 35.7737 43.3612 32.1649 48.1648 33.2662C50.3576 33.7677 51.695 35.2624 52.2505 37.8289C55.1268 51.1235 52.6291 56.6646 50.628 61.1142C50.2101 62.0336 49.8217 62.899 49.4874 63.7987ZM85.6937 86.2777C85.6101 87.148 85.5167 88.1264 85.3889 89.208L84.671 91.3615C84.612 91.5336 84.5825 91.7106 84.5825 91.8925C84.553 94.228 84.317 95.0835 84.0171 96.1651C83.7074 97.291 83.3534 98.5694 83.137 101.362C82.5962 108.314 78.8202 112.311 71.2535 113.934C63.7998 115.532 62.4821 111.49 61.3169 107.926C61.189 107.532 61.0661 107.159 60.9383 106.81C59.8812 103.929 59.9992 99.8674 60.1664 94.2476C60.25 91.4894 60.0435 84.901 58.5439 81.2381C58.5635 79.7975 58.598 78.3324 58.6373 76.8525C58.6422 76.6607 58.6176 76.4739 58.5635 76.2969C58.5193 75.9576 58.4455 75.6184 58.3472 75.2742C57.7425 73.1699 56.2773 71.4048 54.5122 70.6771C53.814 70.387 52.5259 69.856 50.982 70.2494C51.3115 68.8924 51.8818 67.3633 52.5013 65.7015L52.7619 65.0033C53.052 64.2166 53.4207 63.4005 53.8091 62.54C55.9085 57.879 58.7799 51.5021 55.6627 37.0865C54.4975 31.688 50.5936 29.0526 44.6838 29.6623C41.134 30.036 37.8939 31.4667 36.2763 32.2829C35.9321 32.4599 35.6125 32.632 35.3126 32.7942C35.765 27.3564 37.471 17.1887 43.848 10.7577C44.3249 10.2759 44.8215 9.82353 45.3377 9.4007C45.5934 9.35153 45.8392 9.24828 46.0506 9.08603C49.748 6.27862 54.3844 4.90195 59.8271 4.99045C61.838 5.02487 63.7703 5.15762 65.5993 5.3887C75.1327 7.1292 81.549 12.5031 85.443 17.1051C89.4451 21.835 91.6134 26.6041 92.4787 29.1706C85.974 28.5069 81.549 29.795 79.302 33.0007C74.4198 39.9775 81.9718 53.518 85.6003 60.0227C86.264 61.2175 86.8393 62.245 87.0212 62.6826C88.2012 65.549 89.7303 67.4567 90.8513 68.853C91.1955 69.2808 91.5249 69.6938 91.7805 70.0576C89.809 70.628 86.269 71.9407 86.5935 78.4995C86.5345 79.2665 86.387 80.6973 86.1854 82.5066C85.9543 83.5342 85.8363 84.7732 85.6937 86.2777ZM90.0695 78.3078C89.8729 74.2171 91.3921 73.7943 93.0048 73.342C93.231 73.278 93.4522 73.2141 93.6685 73.1404C93.8603 73.3125 94.0766 73.4796 94.3274 73.6468C97.1299 75.5004 102.106 75.7167 109.112 74.3056C108.119 75.1759 106.56 76.2674 104.426 77.2605C102.41 78.1947 99.0375 78.8978 95.8368 79.0502C92.2968 79.2174 90.4973 78.652 90.0695 78.3078ZM92.872 32.7254C92.8425 34.4511 92.6065 36.0146 92.3558 37.6519C92.0854 39.412 91.8051 41.2263 91.7363 43.4339C91.6675 45.5825 91.933 47.8146 92.1935 49.973C92.7196 54.3341 93.2555 58.823 91.1758 63.253C90.8513 62.6777 90.5415 62.0533 90.2515 61.3551C89.9909 60.7258 89.4304 59.7179 88.6535 58.3265C85.6249 52.8985 78.54 40.184 82.1685 34.9969C84.027 32.332 88.7568 32.219 92.872 32.7254ZM93.993 67.206C93.8554 67.0339 93.7177 66.8569 93.5751 66.6799C93.5161 66.6061 93.4571 66.5324 93.3981 66.4586C96.9676 60.5635 96.2695 54.7275 95.65 49.5551C95.3943 47.4311 95.1534 45.4251 95.2173 43.542C95.2812 41.5459 95.5467 39.8349 95.7975 38.178C96.1121 36.1375 96.4317 34.0283 96.3432 31.5355C96.4071 31.275 96.4366 30.9652 96.4022 30.6014C96.176 28.2168 93.4522 21.0729 87.9013 14.6075C84.912 11.1314 80.5804 7.2472 74.6853 4.58237C77.2665 4.0612 80.7475 3.58428 84.6366 3.66787C94.7256 3.89403 102.705 7.67003 108.355 14.8877C108.473 15.0352 108.581 15.2024 108.684 15.3794C112.234 22.0513 107.322 46.2364 93.993 67.206Z" fill="white"/>
<path d="M47.6388 35.0804C46.3703 34.9034 45.2247 35.0656 44.6397 35.5081C44.3152 35.7539 44.2168 36.0391 44.1873 36.2358C44.1136 36.7619 44.4823 37.3371 44.7085 37.637C45.3427 38.4827 46.2769 39.0629 47.1963 39.1907C47.3291 39.2104 47.4618 39.2202 47.5946 39.2202C49.1286 39.2202 50.5249 38.0254 50.6478 37.1404C50.8002 36.0293 49.1974 35.2967 47.6388 35.0804Z" fill="white"/>
<path d="M86.5149 34.2054C85.0547 34.407 83.6387 35.0658 83.7567 35.9361C83.8501 36.6096 85.0694 37.7651 86.5149 37.7651C86.6378 37.7651 86.7607 37.7552 86.8836 37.7405C87.8473 37.6077 88.5553 36.9931 88.8897 36.6441C89.401 36.1081 89.696 35.5083 89.6419 35.1199C89.519 34.2496 87.9752 33.9989 86.5149 34.2054Z" fill="white"/>
</svg>
