<svg width="98" height="118" viewBox="0 0 98 118" fill="none" xmlns="http://www.w3.org/2000/svg">
<g clip-path="url(#clip0_2020_361)">
<path d="M88.1513 93.5443L35.0671 109.199C33.4453 109.678 31.891 108.279 32.2318 106.648L51.1958 16.0888C51.5504 14.3943 53.8981 14.1264 54.6388 15.6946L89.7518 90.0428C90.414 91.4462 89.6585 93.1004 88.1513 93.5443ZM97.2545 89.8503L56.5986 3.76263C53.9187 -1.23657 47.5763 -1.05509 45.0987 3.12906L1.00506 74.3416C-0.360853 76.5619 -0.33407 79.2988 1.08264 81.4905L22.6363 114.784C24.8587 117.426 26.9137 118.672 30.4236 117.637L92.9877 99.1857C97.1556 97.9411 99.1642 93.9259 97.2545 89.8503Z" fill="white"/>
</g>
<defs>
<clipPath id="clip0_2020_361">
<rect width="98" height="118" fill="white"/>
</clipPath>
</defs>
</svg>
