<svg width="118" height="118" viewBox="0 0 118 118" fill="none" xmlns="http://www.w3.org/2000/svg">
<path d="M59 69.5095C64.8042 69.5095 69.5094 64.8043 69.5094 59.0001C69.5094 53.1959 64.8042 48.4907 59 48.4907C53.1959 48.4907 48.4907 53.1959 48.4907 59.0001C48.4907 64.8043 53.1959 69.5095 59 69.5095Z" fill="#61DAFB"/>
<path d="M98.9172 41.6688C96.8891 40.9313 94.7688 40.1939 92.5563 39.5485C93.1094 37.336 93.5703 35.1235 93.9391 33.0032C95.875 20.8345 93.7547 12.261 87.8547 8.94228C86.1031 7.92822 84.1672 7.46729 81.9547 7.46729C75.5016 7.46729 67.2969 12.261 59 20.2813C50.7031 12.261 42.4985 7.46729 36.0453 7.46729C33.8328 7.46729 31.8969 7.92822 30.1453 8.94228C24.2453 12.3532 22.125 20.9267 24.061 33.0032C24.4297 35.1235 24.8906 37.336 25.4438 39.5485C23.2313 40.1939 21.111 40.8392 19.0828 41.6688C7.5594 46.0938 1.29065 52.1782 1.29065 59.0001C1.29065 65.822 7.65159 71.9063 19.0828 76.3314C21.111 77.0689 23.2313 77.8064 25.4438 78.4517C24.8906 80.6642 24.4297 82.8767 24.061 84.997C22.125 97.1657 24.2453 105.739 30.1453 109.058C31.8969 110.072 33.8328 110.533 36.0453 110.533C42.5906 110.533 50.7953 105.739 59 97.7188C67.2969 105.739 75.5016 110.533 81.9547 110.533C84.1672 110.533 86.1031 110.072 87.8547 109.058C93.7547 105.647 95.875 97.0735 93.9391 84.997C93.5703 82.8767 93.1094 80.6642 92.5563 78.4517C94.7688 77.8064 96.8891 77.161 98.9172 76.3314C110.441 71.9063 116.709 65.822 116.709 59.0001C116.709 52.1782 110.441 46.0938 98.9172 41.6688ZM85.2735 13.5517C89.0531 15.7642 90.3438 22.586 88.7766 32.2657C88.5 34.2017 88.0391 36.2298 87.486 38.3501C82.6922 37.2438 77.6219 36.5063 72.275 36.0454C69.1406 31.6204 65.9141 27.6563 62.6875 24.061C69.5094 17.3313 76.4235 12.722 82.0469 12.722C83.2453 12.722 84.3516 12.9985 85.2735 13.5517ZM74.9485 68.2188C73.2891 71.1688 71.3531 74.1189 69.325 77.0688C65.9141 77.3454 62.5031 77.4376 59 77.4376C55.4047 77.4376 51.9938 77.3454 48.675 77.0688C46.6469 74.1189 44.8031 71.1688 43.1438 68.2188C41.3922 65.1767 39.7328 62.0423 38.2578 59.0001C39.7328 55.9579 41.3922 52.8235 43.1438 49.7813C44.8031 46.8313 46.7391 43.8814 48.7672 40.9314C52.1782 40.6548 55.5891 40.5626 59.0922 40.5626C62.6875 40.5626 66.0985 40.6548 69.4172 40.9314C71.4453 43.8814 73.2891 46.8313 74.9485 49.7813C76.7 52.8235 78.3594 55.9579 79.8344 59.0001C78.2672 62.0423 76.7 65.0845 74.9485 68.2188ZM82.6 65.1767C83.9828 68.4032 85.0891 71.5376 86.1031 74.672C82.9688 75.4095 79.65 75.9626 76.1469 76.4235C77.2531 74.672 78.4516 72.8282 79.4656 70.8923C80.5719 68.9564 81.586 67.0204 82.6 65.1767ZM59 90.1595C56.7875 87.7626 54.6672 85.1814 52.6391 82.5079C54.7594 82.6001 56.8797 82.6923 59 82.6923C61.1203 82.6923 63.2407 82.6001 65.361 82.5079C63.3328 85.1814 61.2125 87.7626 59 90.1595ZM41.8531 76.3314C38.35 75.8704 35.0313 75.3173 31.8969 74.5798C32.911 71.5376 34.0172 68.311 35.4 65.0845C36.4141 66.9282 37.4281 68.8642 38.5344 70.7079C39.6406 72.736 40.7469 74.4876 41.8531 76.3314ZM35.4 52.8235C34.0172 49.597 32.911 46.4626 31.8969 43.3282C35.0313 42.5907 38.35 42.0376 41.8531 41.5767C40.7469 43.3282 39.5485 45.172 38.5344 47.1079C37.4281 49.0438 36.4141 50.9798 35.4 52.8235ZM59 27.8407C61.2125 30.2376 63.3328 32.8188 65.361 35.4923C63.2407 35.4001 61.1203 35.3079 59 35.3079C56.8797 35.3079 54.7594 35.4001 52.6391 35.4923C54.6672 32.8188 56.7875 30.2376 59 27.8407ZM79.4656 47.2001L76.1469 41.6688C79.65 42.1298 82.9688 42.6829 86.1031 43.4204C85.0891 46.4626 83.9828 49.6892 82.6 52.9157C81.586 50.9798 80.5719 49.0438 79.4656 47.2001ZM29.2235 32.2657C27.6563 22.586 28.9469 15.7642 32.7266 13.5517C33.6485 12.9985 34.7547 12.722 35.9531 12.722C41.4844 12.722 48.3985 17.2392 55.3125 24.061C52.086 27.5642 48.8594 31.6204 45.725 36.0454C40.3781 36.5063 35.3078 37.336 30.5141 38.3501C29.961 36.2298 29.5922 34.2017 29.2235 32.2657ZM6.45315 59.0001C6.45315 54.6673 11.7078 50.0579 20.9266 46.647C22.7703 45.9095 24.7985 45.2642 26.8266 44.711C28.3016 49.3204 30.1453 54.2063 32.3578 59.0923C30.1453 63.9782 28.2094 68.772 26.8266 73.3813C14.1047 69.6938 6.45315 64.1626 6.45315 59.0001ZM32.7266 104.449C28.9469 102.236 27.6563 95.4142 29.2235 85.7345C29.5 83.7985 29.961 81.7704 30.5141 79.6501C35.3078 80.7563 40.3781 81.4939 45.725 81.9548C48.8594 86.3798 52.086 90.3438 55.3125 93.9392C48.4906 100.669 41.5766 105.278 35.9531 105.278C34.7547 105.278 33.6485 105.002 32.7266 104.449ZM88.7766 85.7345C90.3438 95.4142 89.0531 102.236 85.2735 104.449C84.3516 105.002 83.2453 105.278 82.0469 105.278C76.5156 105.278 69.6016 100.761 62.6875 93.9392C65.9141 90.436 69.1406 86.3798 72.275 81.9548C77.6219 81.4939 82.6922 80.6642 87.486 79.6501C88.0391 81.7704 88.4078 83.7985 88.7766 85.7345ZM97.0735 71.3532C95.2297 72.0907 93.2016 72.736 91.1735 73.2892C89.6985 68.6798 87.8547 63.7938 85.6422 58.9079C87.8547 54.022 89.7906 49.2282 91.1735 44.6189C103.895 48.3064 111.547 53.8376 111.547 59.0001C111.547 63.3329 106.2 67.9423 97.0735 71.3532Z" fill="#61DAFB"/>
</svg>
