<svg width="118" height="118" viewBox="0 0 118 118" fill="none" xmlns="http://www.w3.org/2000/svg">
<g clip-path="url(#clip0_40_16)">
<path d="M81.761 81.2263C73.4641 98.1889 58.9353 109.602 39.7143 113.354C36.7671 114.076 33.7417 114.429 30.7075 114.405C19.645 114.405 9.50441 109.795 4.5816 102.245C-2.02825 92.1874 -4.27762 70.8645 17.5155 55.0912C17.958 57.4973 18.8614 60.7976 19.4607 62.752C15.1825 65.9303 11.6807 70.0373 9.21863 74.764C5.16238 82.729 5.6141 90.6848 10.4171 98.0414C13.7358 103.001 18.9905 106.016 25.7478 106.937C34.1879 108.006 42.7503 106.393 50.2236 102.328C61.9407 96.1699 69.7489 88.8134 74.8561 78.7557C73.412 77.2634 72.5572 75.2984 72.45 73.2245C72.3728 70.9989 73.1817 68.8337 74.6992 67.2039C76.2167 65.5741 78.3187 64.6129 80.5441 64.5312H80.8575C83.0221 64.5203 85.1079 65.342 86.6835 66.8262C88.2591 68.3103 89.2039 70.3434 89.3223 72.5047C89.4408 74.666 88.7238 76.7902 87.3198 78.4376C85.9158 80.085 83.9322 81.1297 81.7794 81.3554L81.761 81.2263ZM108.191 62.6045C119.447 75.3632 119.751 90.3806 115.4 99.0923C111.344 107.048 100.65 115.013 86.2689 115.013C79.5555 114.876 72.9512 113.288 66.9096 110.358C69.0207 108.855 72.0168 106.449 73.6669 104.946C78.326 106.965 83.3399 108.036 88.4169 108.099C97.7279 108.099 104.78 103.748 108.984 95.792C111.685 90.5373 111.842 84.3792 109.288 78.0735C106.155 70.1397 100.579 63.4082 93.3674 58.8524C83.9059 52.4744 72.7519 49.0743 61.3414 49.0898H58.6403C58.0105 50.5447 56.9858 51.7943 55.6824 52.6969C54.379 53.5995 52.8489 54.1192 51.2653 54.197H50.9796C48.7893 54.1701 46.6959 53.2904 45.1438 51.7447C43.5918 50.1991 42.7034 48.1093 42.6674 45.9192C42.6314 43.7291 43.4506 41.6113 44.951 40.0155C46.4514 38.4197 48.5148 37.4716 50.703 37.3728H51.0072C52.5321 37.3739 54.0271 37.7952 55.3281 38.5905C56.6292 39.3857 57.6859 40.5242 58.3822 41.8807H60.7883C79.9633 41.8807 96.7968 49.2373 108.191 62.6045ZM31.906 83.8076C31.7481 82.2767 32.119 80.738 32.9569 79.4471C24.5494 64.8815 20.0507 46.4163 26.9555 27.1953C31.906 12.7495 44.3697 2.98682 57.8844 2.98682C72.3025 2.98682 87.3199 15.6073 89.1175 39.9263C86.8682 39.1796 83.5863 38.0826 81.6135 37.677C81.1249 29.7212 74.4044 9.90088 58.4836 10.1959C52.7772 10.3526 44.3697 13.0537 40.0461 18.6034C34.698 25.2282 31.5868 33.3773 31.1593 41.8807C30.1458 53.5404 32.8814 65.219 38.9675 75.2157C39.3035 75.093 39.6617 75.0427 40.0185 75.0682H40.3135C42.5433 75.0279 44.6978 75.875 46.303 77.4232C47.9083 78.9714 48.8327 81.0938 48.8731 83.3236C48.9134 85.5534 48.0663 87.7079 46.5181 89.3132C44.97 90.9184 42.8475 91.8429 40.6177 91.8832H40.3135C38.1381 91.8755 36.0497 91.0286 34.4834 89.519C32.9171 88.0094 31.9938 85.9535 31.906 83.7799V83.8076Z" fill="#764ABC"/>
</g>
<defs>
<clipPath id="clip0_40_16">
<rect width="118" height="118" fill="white"/>
</clipPath>
</defs>
</svg>
