<svg width="118" height="118" viewBox="0 0 118 118" fill="none" xmlns="http://www.w3.org/2000/svg">
<path d="M35.9835 69.4115C41.8917 69.4115 46.6813 64.6219 46.6813 58.7137C46.6813 52.8054 41.8917 48.0159 35.9835 48.0159C30.0753 48.0159 25.2857 52.8054 25.2857 58.7137C25.2857 64.6219 30.0753 69.4115 35.9835 69.4115ZM10.6978 90.8071C16.606 90.8071 21.3956 86.0175 21.3956 80.1093C21.3956 74.201 16.606 69.4115 10.6978 69.4115C4.78957 69.4115 0 74.201 0 80.1093C0 86.0175 4.78957 90.8071 10.6978 90.8071ZM107.302 90.8071C113.21 90.8071 118 86.0175 118 80.1093C118 74.201 113.21 69.4115 107.302 69.4115C101.394 69.4115 96.6044 74.201 96.6044 80.1093C96.6044 86.0175 101.394 90.8071 107.302 90.8071Z" fill="white"/>
<path d="M72.1669 59.1645C71.8249 55.5904 71.6507 52.6156 68.9127 50.5248C65.4451 47.877 61.5173 49.595 56.6789 47.8487C51.9248 46.6986 48.3984 42.4775 48.3984 37.4463C48.3984 31.5303 53.2742 26.7344 59.2887 26.7344C63.7433 26.7344 67.5733 29.3652 69.2603 33.1334C71.8422 38.0375 70.1641 43.0285 73.4081 45.5425C77.2492 48.5193 82.4277 46.3394 88.206 49.1598C90.0626 50.013 91.6342 51.3662 92.7416 53.0433C93.849 54.7204 94.4922 56.7214 94.4922 58.8702C94.4922 63.9014 90.9659 68.1224 86.2117 69.2725C81.3734 71.0189 77.4455 69.3008 73.9779 71.9487C70.0786 74.9262 72.1662 79.9075 68.9882 85.1695C67.1845 88.6344 63.5182 91.0059 59.2887 91.0059C53.2742 91.0059 48.3984 86.2101 48.3984 80.294C48.3984 75.9965 50.9713 72.29 54.6847 70.5836C60.4629 67.7632 65.6414 69.9431 69.4825 66.9664C71.6984 65.2491 72.1669 62.6 72.1669 59.1645Z" fill="#D0021B"/>
</svg>
