<svg width="118" height="118" viewBox="0 0 118 118" fill="none" xmlns="http://www.w3.org/2000/svg">
<path d="M96.2806 64.7968C93.0382 64.8011 89.8391 65.5425 86.9254 66.9651C86.0132 65.4512 85.3087 63.8214 84.8309 62.1197C84.5564 60.7858 84.493 59.417 84.6429 58.0634C84.9581 56.574 85.367 55.1059 85.8671 53.6679C85.8487 53.4799 85.6422 52.5912 83.5661 52.5617C81.4901 52.5322 79.7016 52.9562 79.5099 53.5057C79.1493 54.5092 78.8597 55.5369 78.6433 56.5811C76.9251 60.8199 74.8101 64.8868 72.3266 68.7277C70.9352 66.4466 70.3629 63.7594 70.7041 61.1093C71.0193 59.6198 71.4282 58.1518 71.9284 56.7138C71.9099 56.5257 71.7034 55.6371 69.6274 55.6076C67.5513 55.5781 65.7629 56.0021 65.5711 56.5516C65.3794 57.101 65.136 58.3953 64.7046 59.6269C64.2731 60.8586 59.236 72.1128 57.9159 75.0149C57.2374 76.4899 56.6511 77.692 56.2381 78.5032C56.2185 78.5559 56.1938 78.6066 56.1643 78.6544C55.7956 79.3514 55.6001 79.7312 55.6001 79.7312V79.7496C55.3162 80.2585 55.0138 80.7305 54.8626 80.7305C54.5989 79.677 54.6116 78.5732 54.8995 77.5261C55.637 73.621 57.4439 67.5514 57.4254 67.3412C57.4254 67.2269 57.7647 66.1722 56.2565 65.6265C55.9067 65.46 55.5139 65.4061 55.1322 65.4722C54.7505 65.5382 54.3987 65.7209 54.1251 65.9952C53.9924 65.9952 53.9002 66.3161 53.9002 66.3161C53.9002 66.3161 55.5411 59.4905 50.7695 59.4905C48.9113 59.8643 47.1467 60.6059 45.5793 61.6716C44.012 62.7374 42.6736 64.1059 41.6429 65.6966C40.3597 66.3935 37.6272 67.8832 34.7031 69.4873C33.5968 70.1105 32.4389 70.7337 31.3659 71.3311C31.2921 71.2573 31.2147 71.1614 31.1409 71.0877C25.3331 64.9001 14.6578 60.5341 15.1187 52.2556C15.2884 49.2392 16.3246 41.3185 35.6176 31.6978C51.4959 23.8729 64.133 26.0412 66.3197 30.8497C69.4504 37.7158 59.5494 50.4635 43.1437 52.3109C41.3288 52.6792 39.4543 52.6347 37.6588 52.1809C35.8633 51.7271 34.1928 50.8755 32.7708 49.6891C31.9042 48.7451 31.7715 48.6898 31.4507 48.8779C30.9234 49.1618 31.2626 50.0099 31.4507 50.5004C32.0765 51.633 32.9231 52.6287 33.9402 53.4286C34.9574 54.2285 36.1246 54.8165 37.3728 55.1577C43.8268 56.5524 50.5558 55.8855 56.6105 53.2512C66.5667 49.4052 74.3105 38.7114 72.039 29.7545C69.7564 20.6648 54.6709 17.6669 40.3929 22.7482C31.4498 25.7575 23.1864 30.4975 16.0738 36.6981C8.20837 44.0546 6.96568 50.4451 7.47455 53.1259C9.3183 62.6322 22.4126 68.8162 27.6526 73.4071C27.3871 73.5583 27.1437 73.6911 26.9372 73.8017C24.3154 75.1034 14.3222 80.3286 11.8184 85.8524C8.99012 92.1212 12.272 96.6015 14.4402 97.2062C17.7074 97.9883 21.1372 97.7307 24.2509 96.4694C27.3645 95.208 30.0067 93.0059 31.8084 90.1705C33.3426 87.8186 34.2857 85.1308 34.5572 82.336C34.8288 79.5411 34.4209 76.722 33.3682 74.1188C33.3504 74.0767 33.3254 74.038 33.2944 74.0045L35.3484 72.7987C36.6869 72.0059 38.0071 71.2721 39.1391 70.6673C38.3715 72.8815 37.9208 75.1931 37.8006 77.5334C37.5399 81.1205 38.6377 84.6745 40.8759 87.4897C41.2165 87.7829 41.6119 88.0055 42.0392 88.1448C42.4664 88.284 42.9171 88.3371 43.365 88.3009C45.5775 88.3009 46.5916 86.4572 47.7015 84.2668C49.0585 81.5897 50.2827 78.4774 50.2827 78.4774C50.2827 78.4774 48.7561 86.8886 52.9046 86.8886C54.4127 86.8886 55.9394 84.9269 56.6216 83.9386V83.9571C56.6216 83.9571 56.6584 83.9017 56.7359 83.769L56.9792 83.3744V83.3376C57.584 82.2829 58.941 79.8861 60.9581 75.9072C63.5614 70.7779 66.0689 64.3654 66.0689 64.3654C66.3108 65.7746 66.6446 67.1666 67.0682 68.5322C67.6756 70.1877 68.3938 71.8003 69.2181 73.3592C68.6133 74.2073 68.2372 74.6793 68.2372 74.6793L68.2556 74.6977C67.7652 75.3394 67.2379 76.0363 66.6516 76.7148C64.9071 78.6326 63.2886 80.6613 61.8062 82.7881C61.5859 83.1453 61.5102 83.5731 61.5945 83.9843C61.6788 84.3954 61.9167 84.7589 62.2597 85.0006C63.036 85.4045 63.9208 85.5505 64.7857 85.4173C66.089 85.3437 67.3706 85.0508 68.5764 84.5507C69.7417 84.1407 70.8411 83.563 71.8399 82.8361C72.8695 82.1227 73.6984 81.1564 74.2466 80.0302C74.7949 78.9039 75.0442 77.6555 74.9706 76.4051C74.8546 74.8299 74.4522 73.2891 73.7832 71.8584C73.9712 71.5929 74.1519 71.3311 74.3289 71.0656C76.4254 67.9363 78.315 64.6733 79.9855 61.2974C80.2274 62.7066 80.5612 64.0986 80.9849 65.4642C81.4858 66.8948 82.1024 68.2822 82.8286 69.6127C80.4168 71.4683 78.5171 73.9073 77.3084 76.7001C76.1211 80.1331 77.0429 81.6782 78.7834 82.0359C79.7358 82.1015 80.6881 81.9065 81.538 81.4717C82.7876 81.061 83.9648 80.4562 85.0264 79.6796C86.1457 79.0189 87.0833 78.0904 87.7546 76.9775C88.426 75.8645 88.8101 74.6021 88.8724 73.3039C88.7887 72.0079 88.4961 70.7341 88.0059 69.5316C91.1886 68.2882 94.6394 67.8917 98.0211 68.3811C106.996 69.4357 108.77 75.037 108.431 77.397C108.272 78.2336 107.935 79.0265 107.444 79.7223C106.953 80.4182 106.319 81.0008 105.584 81.4311C104.961 81.8257 104.754 81.9584 104.81 82.2424C104.884 82.6591 105.179 82.6369 105.713 82.5632C107.066 82.1427 108.259 81.3221 109.136 80.2096C110.013 79.097 110.532 77.7448 110.625 76.3313C110.909 70.8001 105.628 64.7341 96.2917 64.7894L96.2806 64.7968ZM27.0294 88.1313C24.0499 91.3763 19.9014 92.6006 18.1093 91.5644C16.1844 90.4581 16.9404 85.6644 20.5984 82.2276C22.7683 80.2743 25.1136 78.5252 27.6046 77.0024C28.0397 76.7369 28.6814 76.3608 29.4484 75.8962L29.6549 75.7819L30.1084 75.4979C30.7619 77.6876 30.8212 80.0116 30.2801 82.2317C29.739 84.4518 28.6171 86.4879 27.0294 88.1313ZM48.7156 73.3813C47.6794 75.9072 45.5111 82.3788 44.191 82.0174C43.0589 81.7151 42.3472 76.8107 43.9661 71.9653C44.7834 69.6328 45.974 67.4484 47.4913 65.4974C49.1138 63.6869 50.9059 63.0821 51.3374 63.8196C50.9437 67.1195 50.0601 70.3422 48.7156 73.3813ZM66.611 81.9437C66.1759 82.1686 65.7629 82.3124 65.5748 82.2092C65.4421 82.1354 65.7629 81.8404 65.7629 81.8404C65.7629 81.8404 68.0086 79.4251 68.8936 78.3336C69.4024 77.692 69.9998 76.9397 70.6488 76.0879V76.3313C70.6488 79.2149 67.8574 81.1582 66.6147 81.9511L66.611 81.9437ZM80.417 78.7946C80.0962 78.5696 80.1515 77.8137 81.2282 75.4574C81.9769 73.9441 83.0229 72.5971 84.3036 71.497C84.4999 72.0552 84.6021 72.6421 84.606 73.2338C84.6205 74.4932 84.2178 75.7221 83.4607 76.7286C82.7036 77.7352 81.6347 78.4629 80.4207 78.7982L80.417 78.7946Z" fill="#CD6799"/>
</svg>
