<svg width="118" height="118" viewBox="0 0 118 118" fill="none" xmlns="http://www.w3.org/2000/svg">
<path d="M76.4602 20.0675L76.9507 8.36706L86.9807 7.74756L87.4305 19.6582C87.4379 19.849 87.3763 20.0362 87.2572 20.1855C87.1925 20.2665 87.1122 20.3336 87.0211 20.383C86.93 20.4324 86.8299 20.463 86.7267 20.4729C86.6236 20.4829 86.5194 20.4721 86.4205 20.4411C86.3216 20.4101 86.23 20.3595 86.151 20.2924L82.2791 17.2687L77.6955 20.7128C77.6136 20.7767 77.5197 20.8236 77.4194 20.8508C77.3192 20.8781 77.2144 20.885 77.1114 20.8713C77.0084 20.8575 76.9092 20.8234 76.8196 20.7709C76.7299 20.7183 76.6516 20.6485 76.5893 20.5653C76.4897 20.4194 76.4441 20.2434 76.4602 20.0675Z" fill="white"/>
<path d="M76.9506 8.36328L76.4602 20.0674C76.4525 20.2469 76.5087 20.4233 76.6187 20.5652C76.6811 20.6484 76.7594 20.7182 76.849 20.7708C76.9387 20.8233 77.0379 20.8574 77.1409 20.8712C77.2439 20.8849 77.3486 20.878 77.4489 20.8508C77.5492 20.8236 77.6431 20.7766 77.725 20.7127L82.3086 17.2686L86.1804 20.2923C86.2594 20.3594 86.3511 20.41 86.45 20.441C86.5489 20.472 86.653 20.4828 86.7562 20.4729C86.8593 20.4629 86.9595 20.4323 87.0506 20.3829C87.1417 20.3336 87.222 20.2664 87.2867 20.1854C87.4058 20.0361 87.4673 19.849 87.46 19.6581L86.9806 7.74378L92.7552 7.37503C93.4399 7.32949 94.1268 7.41943 94.7766 7.6397C95.4265 7.85998 96.0265 8.20626 96.5423 8.65873C97.0582 9.1112 97.4797 9.66097 97.7828 10.2766C98.0859 10.8922 98.2646 11.5615 98.3086 12.2462C98.3086 12.3519 98.3086 12.4589 98.3086 12.567V105.433C98.3028 106.813 97.7503 108.134 96.7723 109.107C95.7943 110.08 94.4705 110.626 93.0908 110.625H92.8474L22.9767 107.513C21.6681 107.459 20.4275 106.915 19.5017 105.989C18.576 105.062 18.0328 103.821 17.9801 102.513L14.7499 17.2944C14.7033 15.9353 15.1904 14.6119 16.1069 13.6072C17.0234 12.6025 18.2966 11.9962 19.6543 11.918L76.9469 8.36697L76.9506 8.36328Z" fill="#FF4785"/>
<path d="M63.6205 46.2928C63.6205 48.3098 77.338 47.3437 79.1818 45.924C79.1818 32.1696 71.7404 24.9421 58.1114 24.9421C44.4824 24.9421 36.8493 32.2803 36.8493 43.2911C36.8493 62.4661 62.9457 62.8349 62.9457 73.2926C63.0316 73.924 62.9712 74.5666 62.7691 75.1708C62.567 75.775 62.2287 76.3247 61.7804 76.7774C61.332 77.23 60.7855 77.5735 60.1832 77.7813C59.581 77.9891 58.939 78.0556 58.3069 77.9758C54.151 77.9758 52.5064 75.8665 52.7019 68.7128C52.7019 67.1603 36.8456 66.6736 36.3662 68.7128C35.1346 86.044 46.0312 91.059 58.4912 91.059C70.5715 91.059 80.0447 84.6686 80.0447 73.1083C80.0447 52.5578 53.561 53.111 53.561 42.9261C53.5057 42.2756 53.5974 41.621 53.8294 41.0108C54.0613 40.4007 54.4276 39.8505 54.9011 39.4011C55.3746 38.9517 55.9431 38.6145 56.5646 38.4147C57.1861 38.2149 57.8445 38.1574 58.4912 38.2466C60.4309 38.2466 63.9119 38.5859 63.6205 46.2928Z" fill="white"/>
</svg>
