<svg width="118" height="118" viewBox="0 0 118 118" fill="none" xmlns="http://www.w3.org/2000/svg">
<path d="M33.1875 50.5187C36.6292 36.752 45.2333 29.8687 59 29.8687C79.65 29.8687 82.2313 45.3562 92.5563 47.9374C99.4396 49.6582 105.463 47.077 110.625 40.1936C107.183 53.9603 98.5792 60.8437 84.8125 60.8437C64.1625 60.8437 61.5812 45.3562 51.2562 42.7749C44.3729 41.0541 38.35 43.6353 33.1875 50.5187ZM7.375 81.4937C10.8167 67.727 19.4208 60.8437 33.1875 60.8437C53.8375 60.8437 56.4188 76.3311 66.7438 78.9124C73.6271 80.6332 79.65 78.052 84.8125 71.1686C81.3708 84.9353 72.7667 91.8186 59 91.8186C38.35 91.8186 35.7688 76.3312 25.4438 73.7499C18.5604 72.0291 12.5375 74.6103 7.375 81.4937Z" fill="#44A8B3"/>
</svg>
