<svg width="118" height="118" viewBox="0 0 118 118" fill="none" xmlns="http://www.w3.org/2000/svg">
<path d="M7.375 59V110.625H59H110.625V59V7.375H59H7.375V59Z" fill="#007ACC"/>
<path d="M90.5797 54.8848C93.0523 55.4601 95.299 56.7547 97.0366 58.6055C97.9934 59.6068 98.8243 60.7213 99.5109 61.9242C99.5441 62.057 95.0527 65.0697 92.3313 66.7585C92.2317 66.8249 91.8409 66.3898 91.3984 65.7408C90.9023 64.8837 90.1969 64.1666 89.3482 63.6565C88.4995 63.1463 87.5352 62.8599 86.5456 62.824C83.4149 62.6101 81.3831 64.251 81.4163 66.9872C81.3896 67.6591 81.5424 68.3261 81.8588 68.9194C82.5484 70.3465 83.8242 71.1983 87.8399 72.9351C95.2149 76.1137 98.3936 78.2119 100.377 81.1951C101.482 83.0791 102.161 85.1817 102.367 87.3556C102.574 89.5296 102.302 91.7224 101.572 93.7805C100.571 96.0405 98.9825 97.991 96.9722 99.4293C94.9619 100.868 92.6031 101.741 90.1409 101.959C87.5259 102.26 84.8837 102.232 82.2755 101.878C78.2793 101.222 74.5979 99.3046 71.7698 96.406C70.7021 95.2029 69.7982 93.8638 69.0816 92.4235C69.3836 92.199 69.7015 91.9969 70.033 91.8188C70.4902 91.557 72.2455 90.5577 73.868 89.6063L76.818 87.8842L77.4375 88.795C78.4875 90.2965 79.8248 91.5749 81.3721 92.5563C82.9292 93.4101 84.6929 93.8146 86.4665 93.7247C88.2401 93.6349 89.9539 93.0542 91.4168 92.0474C92.1668 91.3121 92.6352 90.337 92.7403 89.292C92.8454 88.2469 92.5806 87.198 91.9921 86.3281C91.1882 85.1813 89.5509 84.2152 84.8973 82.1981C81.2478 80.9627 77.9248 78.918 75.1771 76.217C73.8664 74.7237 72.8986 72.9616 72.3414 71.0545C71.9291 68.8818 71.8681 66.657 72.1607 64.4649C72.7076 61.9429 74.0165 59.6499 75.9102 57.8967C77.8039 56.1434 80.1908 55.0148 82.7475 54.6635C85.3545 54.3436 87.9949 54.4181 90.5797 54.8848ZM66.3418 59.1955L66.375 63.425H52.9377V101.613H43.4314V63.425H29.9904V59.2803C29.9539 57.8584 29.992 56.4355 30.1047 55.0175C30.1527 54.9512 38.3316 54.918 48.2472 54.9364L66.2902 54.9844L66.3418 59.1955Z" fill="white"/>
</svg>
