<svg width="118" height="118" viewBox="0 0 118 118" fill="none" xmlns="http://www.w3.org/2000/svg">
<path d="M108.127 90.4359L61.065 117.078V96.3267L90.3438 80.2031L108.127 90.4359ZM111.353 87.5228V31.8508L94.1327 41.807V77.585L111.344 87.5136L111.353 87.5228ZM9.87329 90.4359L56.8889 117.06V96.3267L27.6009 80.2031L9.87329 90.4359ZM6.64673 87.5228V31.8508L23.8674 41.807V77.585L6.64673 87.5228ZM8.66563 28.2462L56.935 0.921875V20.9819L26.0061 37.9905L25.7572 38.1288L8.66563 28.2462ZM109.316 28.2462L61.065 0.921875V20.9819L91.9939 37.9813L92.2428 38.1195L109.334 28.2462H109.316Z" fill="#8ED6FB"/>
<path d="M56.935 91.6067L27.9973 75.6859V44.1762L56.935 60.8437V91.6067ZM61.065 91.6067L90.0026 75.7043V44.1762L61.065 60.8437V91.6067ZM29.9609 40.5625L59 24.5771L88.039 40.5625L59 57.3037L29.9609 40.5625Z" fill="#1C78C0"/>
</svg>
